<?xml version="1.0" encoding="UTF-8"?><svg id="_圖層_1" xmlns="http://www.w3.org/2000/svg" viewBox="0 0 331.6 331.6"><defs><style>.cls-1,.cls-2{fill:#fff;}.cls-3{fill:#374a87;}.cls-2{stroke:#000;stroke-miterlimit:10;stroke-width:.8px;}</style></defs><circle class="cls-2" cx="165.8" cy="165.8" r="165.4"/><ellipse class="cls-3" cx="165.8" cy="165.8" rx="122" ry="73.6"/><path class="cls-1" d="M91.4,153.7c14.7,2.6,13.5,8.3,28.9,10.1,12.6,1.5,16.1-9.6,18.3-22,2.6-11,12.3-24.6,28.5-17,15.5,10.8,6.9,24,5.6,25.7s-10.8,5.6-10.4,.6c1.1-1.3,4.5-3.2,4.3-5.4s-2.2-6.5-6.9-6.5-9.7,4.3-9.5,9.9c.2,5.6,1.3,14,16.6,15.5,10.6,.2,17.5-12.1,31.9-13.4,14.5-1.3,23.3,7.8,35.6,16.2s32.2,3.5,36.9,1.7c-2.8,4.1-11.7,13.4-33.2,11.4-5-1.1-12.1-8.4-21.1-9.9-9.1-1.5-15.8-.4-19.9,7.6s-9.5,25.5-11,28.3-12.9,9.9-25.7,.6c-2.6-1.7-7.3-9.7-5-19,2.4-9.3,14-9.5,15.1-2.6-2.4-.4-7.8,.2-5.2,5.8s11.7,3.9,14-1.5c2.4-5.4,2.6-10.4-1.9-14.2-4.5-3.9-9.3-7.3-15.3-5.6s-13.6,7.8-18.1,10.1c-4.5,2.4-16.2,5.4-24.2,1.7s-17.7-14-25.9-16.8-12.7-5.6-19.4-3.9c-6.9,2.2-13.2,4.2-13.2,1.9,.2-1.1,13.5-12.3,30.2-9.3h0Z"/></svg>