<?xml version="1.0" encoding="UTF-8"?><svg id="_圖層_1" xmlns="http://www.w3.org/2000/svg" viewBox="0 0 195.36 195.36"><defs><style>.cls-1,.cls-2{fill:#174986;}.cls-3{fill:#fff;}.cls-4{fill:#417bbc;}.cls-5{fill:#60a4da;}.cls-2{fill-rule:evenodd;}</style></defs><circle class="cls-3" cx="97.68" cy="97.68" r="97.68"/><g id="layer1"><g id="g935"><path id="path1253" class="cls-4" d="M82.82,148.79c21.61-.9,37.73-16.07,51.53-26.58,13.96-10.64,24.67-12.87,40.75-5.48-20.03-14.82-34.07-9.23-48.06,2.29-13.77,11.33-27.44,26-44.22,29.77Z"/><path id="path1255" class="cls-5" d="M34.07,69.02c-8.71-3.11-13.53,12.74-13.18,22.33,.53,14.38,4.73,29.4,19.8,37.16,15.08,7.77,29.47,4.22,37.59-.88,8.12-5.11,28.89-22.53,37.97-28.63,18.68-12.54,31.39-9.51,49.28,1.78-35.71-30.83-60.13,2.77-83,19.31-22.7,16.41-47.84,.76-46.13-29.75,.57-10,3.69-19.16-2.33-21.32Z"/><path id="circle1257" class="cls-4" d="M72.24,110.98c-6.31,0-11.4-5.1-11.4-11.4s5.09-11.4,11.4-11.4,11.39,5.1,11.39,11.4-5.09,11.4-11.39,11.4Z"/><path id="circle1259" class="cls-5" d="M43.68,64.3c-3.85,0-6.96-3.11-6.96-6.96s3.11-6.97,6.96-6.97,6.96,3.12,6.96,6.97-3.11,6.96-6.96,6.96Z"/><path id="path1261" class="cls-4" d="M23.65,119.23c23,55.69,78.64,16.78,97.01-1.33,18.35-18.09,31.4-17.4,49.76-9.54-31.13-28.4-56.49-2.18-80.86,16.25-20.87,15.77-48.96,22.51-65.91-5.38Z"/><path id="path1263" class="cls-5" d="M64.88,68.72c-26.28,4.22-30.06,37.29-4.02,43.83-6.86-2.67-16.71-31.35,7.37-32.24,13.28-.49,12.38-14.03-3.35-11.59Z"/><path id="polygon1265" class="cls-1" d="M92.3,99.94l4.07-2.05-4.34-7.47,9.07,5.65,4.3-1.63-5.68-12.85-3.89,1.76,3.24,7.3-8.97-4.73-4.07,1.6,6.27,12.42Z"/><path id="path1267" class="cls-2" d="M108.27,75.93l13.59,10.64-4.37,2.27-1.85-1.53-5.56,2.84,.23,1.76-4.22,2.16-2.12-15.32,4.3-2.82Zm1.23,10.17l2.72-1.39-3.24-2.45,.52,3.84Z"/><path id="polygon1269" class="cls-1" d="M131.99,66.13l7.41,11.06,4.16-3.16-10.89-16.36-6.11,4.19,2.22,12.25-8.92-7.65-6.11,4.19,8.86,15.81,3.9-2.67-5.63-10.04,9.01,7.72,4.36-2.99-2.26-12.35Z"/><path id="path1271" class="cls-2" d="M134.39,56.06l6.13-4.07,2.43-1.62,2.43-1.61c8.53-5.67,14.31,.43,11.25,7.7l8.5,5.62-5.95,3.95-6.62-4.37c-1.51,1-3.03,2.01-4.55,3.02l4.05,6.09-5.48,3.63c-3.51-5.29-7.03-10.57-10.54-15.86l-1.65-2.48Zm22.24,.4h0s0,0,0,0Zm-14,.11l2.65,3.99,5.17-3.44c1.09-.73,1.39-2.22,.67-3.32-.73-1.09-2.23-1.39-3.32-.67l-5.17,3.44Z"/></g></g></svg>