<?xml version="1.0" encoding="UTF-8"?><svg id="_圖層_1" xmlns="http://www.w3.org/2000/svg" xmlns:xlink="http://www.w3.org/1999/xlink" viewBox="0 0 624 624"><defs><style>.cls-1,.cls-2{fill:#c9caca;}.cls-3,.cls-4,.cls-5,.cls-6,.cls-7,.cls-2{fill-rule:evenodd;}.cls-3,.cls-8{fill:#fff;}.cls-4{fill:#094;}.cls-5,.cls-9{fill:#231815;}.cls-6{fill:#e60012;}.cls-7{fill:#00a0e9;}.cls-10{clip-path:url(#clippath);}.cls-11{fill:none;}.cls-8{stroke:#000;stroke-miterlimit:10;stroke-width:1.24px;}</style><clipPath id="clippath"><circle class="cls-11" cx="312" cy="312" r="312"/></clipPath></defs><g class="cls-10"><g><rect class="cls-8" x="-89.23" y="-2" width="810" height="628"/><path class="cls-7" d="M606.76,393.52c-1.57-.63-3.19-1.15-4.83-1.55l-.73-1.09c.36-1.19,1.64-.55,1.64-1.64-.91-2.19,1-5.11-.91-6.38-1.64-.36-1.64-1.37-3-1.37-2.19-2.55-4.47-3.19-6.11-5.47-3.56-1-4.92-3.28-7.48-3.83l-.37-1.09c-.55-.91-1.91-.91-2.92-1.28h-2c-4.47-1.28-9-3.92-13.59-4.56-2.28-1.28-4.56-2.55-6.48-3.83-8.12-1.37-17-4.83-26-7.84-8.9-2.76-17.61-6.1-26.08-10-6.75-.64-13.22-1.37-19.06-3.92-9.49-3.83-19.52-7-29.28-10.67-11.67-.55-22.8-5.38-34.2-5.38-4.38-.93-8.83-1.48-13.31-1.64l-2.83-1.37c-6.2,.64-12.77-1.82-18.61-2.83l-1.28-1c-29.91-.64-59.46-.64-89.19-.64l-1.87,1c-3.34-.04-6.67,.29-9.94,1l-.64,.64c-6.09,1.86-12.3,3.26-18.6,4.2-1.28,.18-2.55,.46-3.83,.64-8.76,4.83-18.15,3.19-27.36,5.84-1.91,1.19-1.55,4.2-3.19,5.11-1,2.19-1.64,4.47-2.64,5.75-3.19,3.56-5.47,7.48-8.39,9.76-1.37,0-1.92,.73-3.92,2.28-1.28,1.92-3.28,2.92-4.47,4.29l-2,.27c-1.64,1.64-2.64,2.92-4.2,4.2-.79,.48-1.72,.7-2.64,.64-.78,.48-1.65,.82-2.55,1l-2,2.28c-8.76,.27-18.15,3.92-26,5.84h-2.92c-1.37,.64-1.92,2.28-3.56,2.28h-1c-7.11,2.55-14,4.2-20.79,6.11-2.92,.36-5.2,1.37-7.84,1l-1.91,1c-11,1.64-21.8-2-32.1-3.65l-.73-.64c-1.64-1.28-3.56-.27-4.56-1.55-2.28-2.58-4.79-4.96-7.48-7.11-1.91-1-3.56-1.37-4.2-2.37l-1-1.92c-1.56-.51-3.19-.73-4.83-.64l-1.91,1-.64,.91c-1,1-2.64,1.37-3.65,2.28l-.64,1.92c-8.12,4.65-12.31,12.4-17.87,19.52l-.91,.73c-1.37,.27-2,.91-3,.91l-1.64,1.64c-1.28,.27-2.92,0-3.92,.27l-.91,1.37c0,2.83,.36,5.11,.36,7.75,2.92,6.48,4.2,14,7.11,20.43,.64,.73,2,2,2.28,2.28,.64,1.64,.91,2.92,1.92,3.56,.64,1.64,1,3.28,1.64,3.92,.64,1,2,1,2.92,1.28,1.64,2.28,3.56,4.29,4.92,6.48,1.28,.36,1.92,1,2.92,1,1.28,2,3.83,2.64,4.83,4.83,1.14,.95,2.48,1.63,3.92,2,.42,.83,.73,1.72,.91,2.64,3.65,.64,6.2,2.83,8.85,4.47,4.83,0,10,2.64,14.59,3.28,1.64,.36,1.91,1.28,3,1.55,6.11,.73,10.31,3.65,16.14,5.29l1.64,1.28c4.29-.73,7.84,.37,11.76-.73l2.83,1.37h3l1.91-.91c2.55-.46,3.92,.64,5.84,1.19l4.29-1.64c2.19,0,3.83-.27,5.84-.27,9.12-4.56,19.52-3.92,28.91-7.48,10.4-5.11,23.07-10.67,34.75-10.94,3.28-1.09,5.2-3.65,7.11-4.65,3.28,0,4.29-2.55,6.57-2.83,9.96-3.4,20.13-6.11,30.46-8.12,35.48-7.21,71.41-7.57,107-10.12,17.24-2.92,34.75,1,53.26-.64,39.67,4.56,79.35,4.92,119,13.59,3.24,1.97,6.97,3.01,10.76,3l1.19,1.64c.8,.47,1.72,.7,2.64,.64,1.55,.27,2,1.28,2.92,1.55l1.91,1.28c1.06-.02,2.1-.34,3-.91,3.19,.27,5.84,.91,8.76,.91,1.64-1.55,.27-4.2,.27-5.84,1-1.28,2.28-1.28,2.65-2.55-.73-3.56,1.28-6.48,.64-9.76-1-.64-1-1.91-1.37-2.55l-1.92-1v-2c5.2,0,9.76,1.37,14.68,.36-.73-1.55-2-2.28-2.64-3.19-1.28-.36-2,0-2.92-.36l-.64-.64c5.2-1.28,10.12-.36,15-1.28l.27-.73c0-1.91-.91-3.19-.64-4.83,.64-1.28,1.37-2.19,3-2.19,0-2.37-.46-4.92-.46-6.93l1.37-1.28c-.35-1.34,.56-2.62-.08-3.62Zm-311.54-61.56c-3.92-1.64-8.21,.27-12.77-.64l-2.92,1.92c-2.28,0-3.56,1.28-5.84,1.28-.91-1.18-3.28-.46-4.65,.18-.07,.07-.17,.1-.27,.09-.98,.03-1.96-.06-2.92-.27-2.64,1.82-6.11,.91-9.67,.91-1.37,0-1.64,.91-3,1.64l-.91-.37c-1,.37-1.64,.37-2.28,1.64-1.92,1.28-4.56-.36-6.84,.64l-1-.37,.64-.91c1,.27,2.64-1,3.92-.64,3.56-1,6.48-3.47,10.67-2.83l2-1c3.28-.46,6.48-1.28,9.67-1.82,3.57-.76,7.26-.79,10.85-.09,3.56-2.92,7.48,.27,11.77-1.37h1c.88,.26,1.73,.59,2.55,1l.73,.64-.73,.37Z"/><path class="cls-4" d="M398.64,313.81c6.48-1.64,11.13-5.84,14.32-11,0-4.29,0-8.12-.27-12.68l-1.42-.99h-1.92l-2-.64-.91-.73c-1.64-1.55-1.91-4.74-3.92-6.66-.8-2.32-2.26-4.35-4.2-5.84-1.91-1.92-2.28-4.56-4.56-6.47-2-11.67-8.76-19.88-13.32-30.55-.08-1.62-.65-3.18-1.64-4.47-1.12-4.28-3.11-8.29-5.84-11.77,.04-1.95-.05-3.9-.27-5.84-2.65-6.2-5.84-12-9.12-18.51-2.64-2.28-4.56-5.84-6.93-9.12l-.91-.64c-.27-1.28-1.28-2.28-1.92-3.65-2.28-1.28-3.28-3.92-5.56-6.11-.27-1.09-1.37-1.37-1.64-3-3.56-2.28-4.83-6.75-9.76-9.39-1.91-1.64-3.56-3.19-5.84-4.83-9.67-2-20.06,2.28-30.1,2.83-3.07,2.65-6.33,5.05-9.76,7.2l-1,1.92c-5.84,2.92-13.32-1.28-18.51-3.83-1.28-.64-2.65-2.28-3.92-3-2.92-3.92-5.84-7.39-8.76-11.67-4.56-10-11.49-18.79-19.24-26.9-1.83-1.09-3.59-2.28-5.29-3.56-.91-.27-1.19-1.37-2.83-1.64-3.65-.27-6.93-1.28-10.76-1-1.91,.37-3.56,1.64-5.84,1.64l-1.91,1c-.64,.91-1.92,1.28-2.28,2.92-3.92,4.2-9.12,9.12-12,14-2.92,4.2-3.83,7.11-7.11,10.4-5.29,11.94-11.48,23.46-18.51,34.47-3.56,4.29-5.2,10.12-10,13.68-1,.64-1,2.28-1,3.92-8.48,14-15.32,30.1-24.35,44.51v.91c-4.65,9.12-10.21,18.88-16.05,27.91,.46,2-.91,3.56-.55,5.84,3.21,.18,6.41-.35,9.39-1.55,.83-1.2,1.48-2.52,1.91-3.92,0-1.92-.27-3.56-.27-5.84,1.7-3.77,3.1-7.68,4.19-11.67l.64-.73,.73,.37c.91,1.28-.46,2.92,.27,4.56l.91-1c2-2.92,2.64-6.2,3.92-10.12,5.2-9,7.84-21.34,13-30.83,.64-.27,.91-1.55,1.92-2.28,1-1.64,2.65-2.83,3.92-5.47,.91,0,1.64-.64,2.92-1,.64-.27,.64-1.55,1.28-2.92,.9-.57,1.94-.89,3-.91l.64,.91c.27,2.92-1,4.92-.64,7.75-1,1.37-2.65,2.64-3.65,5.29l1.28-.64c5.84-6.84,8.48-17,15.6-24.08,1.37-1.28,1.37-3.19,3.28-4.83,.64-3.92,3.28-5.56,4.2-9.48l1-.73c1-2.55,1.64-4.56,3.19-6.48l1.09-.64c.33-1.25,.51-2.54,.55-3.83,1.09-3.28,2.74-6.29,3.92-9.76,1.64-5.56,4.93-8.21,4.93-12.4,.72-.9,1.58-1.67,2.55-2.28l.36-1.91c.64-1.37,1.64-2,2.92-3.28,0-.91,1-1.92,1.28-3.19,3.28-2.64,8.21-2,12.59-2.28l2.92,.91c2.37,.64,3.28,3.92,5.84,4.93,1.37,3.56,3.28,6.75,4.92,10.67v1c.33,1.07,1.04,1.98,2,2.55,.27,1,0,1.64,.27,2.92,1,2.37,2.55,4.56,3.92,7.48,.68,4.45,2.37,8.69,4.92,12.4l.27,1.92c.27,2,2.37,3.19,4,4.65,.27,1.64,1.64,2.92,2.19,4.92,.68,.84,1.48,1.58,2.37,2.19,0,1.37,.91,1.64,1.55,3,1.37,1.19,3.65,3.47,5.56,5.47,0,1.28,1,1.64,1.64,2.92,1,.91,3.56,1.64,4.56,3.56,3.83,.36,7.48,1,11.67,.36l1-1.64,1.92-.91c.37-1.09,0-2.64,.37-3.92,.27-2.37,1.91-3.28,2.55-5.84-.27-2,.73-2.64,1.28-4.92,.36-.91,1.64-1.64,2.64-2.92,0-1,.64-1.64,1-2.92,1.03-1.3,1.81-2.79,2.28-4.38l1-.27c.91-.36,.91-1.64,1.55-2.92,1.34-1.62,3.16-2.77,5.2-3.28,2.55,0,4.92-.91,7.84-.64l1.91,1c3.28,5.84,5.2,13,8.3,19.61,.73,.91,1.37,2.55,3,3.19,.67,2.34,1.52,4.63,2.55,6.84l1.64,1.37c1.64,3.83,3.28,9,5.56,13.22,1.28,0,.64,2.28,1.92,2.65,.34,3.84,1.69,7.52,3.92,10.67l.64,1.64c1.28-1.37,.27-3.92,.73-5.84,0-1.37,1.55-2,2.83-2,2,4.29,5.56,7.48,8.48,12v1.92c2.92,3.65,3.83,7.84,5.47,12.77,5.29,4.47,6.93,13.59,10.76,20.7,.64,1.28,2.28,2.28,3.65,3.56,.31,1.21,.71,2.4,1.19,3.56l1.37,1.28c.91,1.64,1.64,3.92,3.56,5.56,.43,1.39,1.11,2.68,2,3.83,2.17,3.22,4.15,6.56,5.92,10.02,.64,.64,.91,1.64,1.92,2.55,.64,1,0,1.64,.64,2.92,2.55,1.28,4.56,4.2,8.12,5.84l1.27,.36Z"/><path class="cls-7" d="M327.87,163.42l-1.64-1,1.64,1Z"/><path class="cls-6" d="M422.53,505.14c-1-.36-2.64,0-3.92-.36-1.44-.46-2.77-1.2-3.92-2.19-1.64-2-2.28-4.2-4.83-6.48l-.91-.46c-3-1.19-3.92-5.38-6.84-7-1-1.64-1-3.65-2.28-5.84-.36-6.11,0-13-.91-19.43l.91-1c1.64-.36,2.55-1.28,4.47-2.28,.91-.89,1.7-1.88,2.37-2.96,2.01-1.32,3.67-3.1,4.83-5.2,1.55-1,2.92-3.28,5.47-3.92h2.92c.64-1.55,2.64-1.28,3.28-3.19,1.64-.64,3.56,0,5.47-.37l1.64,1.37c.64,1.19,2,3.83,1.28,5.84l1,1.64c.64,1.92,0,3.47,.27,5.84l-1.56,2.59c-.61,2.68-1.73,5.22-3.28,7.48-1.28,9.67,.36,19.7-1.28,29.18-.27,1.91,.27,4.2,.27,6.38-1.25,.36-2.8,.01-4.45,.36Z"/><path class="cls-3" d="M424.54,459.46c.13-.53,.32-1.05,.55-1.55,.27-1.09,.64-1.91,.82-2.64,.09-.46,.18-.82,.46-1,.09-.18,.09-.27-.09-.46-.56-.2-1.14-.33-1.73-.37v6.02Zm0,37.94v-1c.09,.09,.18,.18,.18,.27,.27,.09,.27,.27,.09,.46l-.27,.27h0Zm0-5.11v-1.09c.64,.18,1,.27,1.28,.37,0,.09,.09,.18,.09,.27-.07,.14-.11,.3-.09,.46-.12,.26-.21,.54-.27,.82,0,.09-.18,.09-.36,.09s-.18,0-.18-.09c-.18-.27-.27-.55-.46-.82h-.01Zm0-1.65v-1.19h0c.18,.27,.46,.46,.73,.82,.05,0,.09,.04,.09,.09h0c-.09,.09-.18,.18-.18,.27h-.64Zm0-2.54v-.73c.07,.15,.21,.25,.37,.27l-.18,.18c0,.09-.09,.18-.18,.27h-.01Zm0-14.4v-1.64c.27,0,.46,0,.55-.09,.27-.09,.36-.09,.46,.09,.18,.37,.36,.64,.46,.82s.18,.37,.09,.91c0,.27-.09,.46-.18,.37-.45-.19-.91-.35-1.38-.46h0Zm-1.46-11.49c.14,.07,.26,.16,.37,.27,.06-.08,.09-.17,.09-.27,.36-1.09,.73-2,1-2.74v-6c-.27,0-.46-.09-.64-.09s-.55-.09-.82-.09v1.09c.18,0,.37,.09,.55,.09,.22,.1,.36,.31,.37,.55-.07,1.35-.38,2.68-.91,3.92v3.28h0Zm0-11.5c.27,0,.37-.09,.37-.27-.09-.35-.21-.68-.37-1v1.28h0Zm1.46,21.33v1.64c-.47-.18-.96-.27-1.46-.27v-1.46h.27c.39,.07,.79,.1,1.19,.09Zm0,15.32v.77c-.18,.18-.46,.55-.82,.91l-.55,.82c0,.09,.09,.09,.27,.09,.15-.02,.31-.05,.46-.09,0-.17,.07-.33,.18-.46q.09-.09,.27-.09l.18,.18v1.19h-.26l-.09-.18c-.37,.04-.74,.13-1.09,.27v-2.64h.46c.13-.31,.29-.62,.46-.91,.03-.1,.14-.15,.24-.12,.06,.02,.1,.06,.12,.12,.09,0,.09,.09,.18,.09v.05Zm0,3.83v1.09c-.18-.18-.27-.36-.46-.55-.27-.36-.46-.55-.46-.64s.09-.09,.27,0c.22,0,.43,.02,.64,.09h0Zm0,5.21v1c-.34,.42-.56,.92-.64,1.46-.18,.45-.45,1.18-.82,2.19v-4.91c.5-.03,1,.07,1.46,.27h0Zm-1.46-1.65v-1.28c.07,.07,.17,.1,.27,.09,.24,.12,.35,.39,.27,.64-.05,0-.09,.04-.09,.09h0c-.2,.1-.36,.26-.46,.46h.01Zm0-2v-1.09c.11,.22,.23,.44,.37,.64q.09,.09,.09,.18c0,.09,.09,.09,0,.18,0,.05-.04,.09-.09,.09h-.37Zm0-5.38c.23-.34,.5-.65,.82-.91v-.18c-.21-.15-.4-.34-.55-.55-.09-.09-.18,0-.27,.09v1.55h0Zm0-19v-.82c.09,.09,.18,.18,.27,.18,.27,.18,.27,.36,0,.55-.08,.02-.18,.11-.27,.11v-.02Zm-4-8.3c.37,0,.64-.09,1-.09,.17,0,.33,.07,.46,.18,.31,.3,.65,.57,1,.82,.34,.35,.71,.69,1.09,1,.18,.09,.36,.09,.46,.18v-3.28c-.09,.18-.09,.37-.18,.55-.27,.55-.46,.91-.64,1-.06,.07-.16,.09-.24,.03-.01,0-.02-.02-.03-.03-.19-.07-.35-.19-.46-.36-.18,0-.18-.18,0-.36,.04-.31,.1-.61,.18-.91,0-.09-.18-.09-.64-.18-.67,.02-1.34,.08-2,.18v1.27Zm4-6.84c-.92-.03-1.83,.03-2.74,.18,.13-1.09,.54-2.12,1.19-3,.43,.02,.86,.08,1.28,.18,.09,0,.18,.09,.27,.09v-1.28h0c-.21-.11-.35-.32-.36-.55l-.18-.18h-.27c-.23,.08-.48,.11-.73,.09-.46,.09-1.19,.27-2.1,.55-.09,.09-.18,.09-.37,.09v1.64c.19-.02,.38-.08,.55-.18,.01,.37-.02,.73-.09,1.09l-.27,1.64h-.18v1h.09c-.09,1.46,.09,2.28,.46,2.64,.77,.36,1.66,.4,2.46,.09,.18,0,.36-.09,.36-.18,.06-.34,.03-.68-.09-1-.09-.18-.18-.18-.46-.18-.28,.02-.56,.08-.82,.18-.27,0-.46,0-.55-.09-.32-.48-.42-1.08-.27-1.64,.93-.16,1.89-.19,2.83-.09v-1.09h0Zm0,14.32v.82c-.27,.18-.46,.37-.73,.55-.6,.62-1.31,1.12-2.1,1.46v1.55c.94-.09,1.89-.09,2.83,0v1.46c-.88-.08-1.76-.11-2.64-.09v.09c.12,1.98,.09,3.96-.09,5.93-.09,1-.18,1.82-.18,2.46,0,.36-.09,.55-.27,.46-.26-.15-.53-.27-.82-.36v-4.38c.09-1.06,.09-2.13,0-3.19v-4.1h.27q0-.09,.09-.09c.49-.35,.93-.79,1.28-1.28,.09-.36,.18-.55,.09-.73-.25-.15-.53-.21-.82-.18-.27,0-.55,.09-.91,.09v-.89c1.33-.46,2.8-.29,4,.46v-.04Zm0,18.42v1.37c-.09,.18-.09,.27-.18,.36l-.27,.46s.09,.09,.46,.09v2.46c-.36,.18-.73,.27-1.19,.46q-.09,.09-.18,0c-.21-.13-.39-.28-.55-.46,0,0,0-.09,.18-.18,.6-.4,1.1-.93,1.46-1.55-.23,0-.45,.06-.64,.18l-.82,.27c-.09,.09-.18,.09-.18,0-.05-.2-.14-.39-.27-.55-.09,.18-.46,.36-1.19,.55-.22,.02-.43,.05-.64,.09v-.64c.18-.09,.27-.09,.46-.18l1.09-.27h.18c-.01,.1,.02,.2,.09,.27-.09,0,0-.09,.09-.09,.16,0,.32-.02,.46-.09,.25-.31,.47-.64,.64-1,.18-.48,.46-.92,.82-1.28,.09-.09,.18-.18,.18-.27h0Zm0,5.56v1.19q-.09-.09-.18-.09h-.18c-.18-.38-.18-.81,0-1.19q0-.09,.09-.09c.09,0,.18,.09,.27,.18h0Zm0,1.91c-.34-.07-.67-.16-1-.27-.11-.49-.04-1.01,.18-1.46v-.09h-.09c-.28,.24-.52,.52-.73,.82l-.27,.18c-.09,0-.09,.09,0,.09,.08,.22,.24,.38,.46,.46-.13,0-.25,.03-.36,.09-.74,.06-1.47,.18-2.19,.36v.64c.73-.18,1.37-.27,1.92-.36h.27c.09,.09,.09,.18,.18,.36s-.09,.37-.18,.37c0,.18-.18,.18-.64,.18-.51,.16-1.03,.28-1.55,.37v.82c1.09-.36,2.23-.51,3.37-.46,.09,0,.09-.09,.27-.27,.04-.23,.17-.43,.36-.55v-1.28h0Zm0,2.64v4.92c-.09,.27-.18,.46-.27,.73s-.27,.27-.55,.18c-.19-.26-.49-.43-.82-.46-.83-.35-1.62-.78-2.37-1.28v-.73c.78,.31,1.62,.43,2.46,.36,.27-.09,.46-.46,.64-.91,.36-.91,.46-1.55,.09-2-.14-.08-.3-.12-.46-.09-.93,.11-1.84,.3-2.74,.55v-.73c1-.18,2-.37,2.92-.55h1.1Zm-4-2.63h.09c.46-.3,1-.46,1.55-.46,.09,0,.09-.09,.18-.09,.04-.36,.16-.7,.36-1,.09,0,.09-.09,.27-.18,0-.09,0-.18-.18-.36-.54-.36-1.2-.46-1.82-.27h-.09c-.09,.09-.18,.09-.37,.09v.64c.09,0,.18-.09,.37-.09,.17-.1,.36-.16,.55-.18,.14,0,.27,.07,.36,.18v.09c0,.18,0,.27-.09,.36v.09c-.14,.11-.3,.2-.46,.27h-.46c-.1,0-.17-.08-.18-.18q0-.09-.09-.18v1.28h.01Zm0-2.65c.22-.14,.47-.2,.73-.18,.73-.18,1.09-.36,1.19-.55v-.27c-.09,0-.18-.09-.09-.18l-.64,.09c-.24,.08-.48,.14-.73,.18-.13,.11-.29,.18-.46,.18v.73Zm0-2.64c.27-.1,.54-.19,.82-.27,.57-.17,1.14-.29,1.73-.36q.18,.09,.18-.09c0-.22-.03-.43-.09-.64-.09-.18-.18-.18-.18-.18-.18,0-.27,.09-.46,.09-.65,.25-1.32,.47-2,.64v.81Zm0-1.64c.18,0,.37,.09,.55,.09,.23,.11,.48,.17,.73,.18,.18,0,.27-.09,.46-.27,.07-.06,.09-.16,.03-.24,0-.01-.02-.02-.03-.03-.09-.18-.18-.27-.27-.46-.3-.27-.53-.61-.64-1-.09-.09-.18-.18-.18-.27s-.09-.27-.18-.27h-.37l-.09,.09v2.18Zm-.48-26.39c.18,0,.27-.09,.46-.09v-1.28c-.16-.02-.32,.02-.46,.09v1.28Zm.46-10.76c-.18,.09-.27,.18-.46,.18v1.64c.18-.09,.27-.09,.46-.18v-1.64Zm0,4.2c-.14,.07-.3,.11-.46,.09v1c.18,0,.27-.09,.46-.09v-1Zm0,13.5v.91c-.18,.09-.27,.09-.46,.18v-1c.18,0,.27-.09,.46-.09h0Zm0,3.1v3.28c-.15,.02-.31,.05-.46,.09v-1.41h.27c-.05-.34-.14-.68-.27-1v-1c.16-.02,.32,.02,.46,.09v-.05Zm0,7.3v4.38c-.13-.11-.29-.18-.46-.18v-1.46s.09-.04,.09-.09h0c0-.09,.09-.18,.18-.36,.1-.76,.16-1.52,.18-2.28h.01Zm0,6.83v2.19h-.09c-.27-.09-.36-.18-.36-.27v-1.1c.03-.25,.16-.49,.36-.64,0-.07,.04-.13,.09-.18Zm0,3v.82c-.16,.07-.32,.16-.46,.27v-.91s.09-.04,.09-.09h0c.18,0,.27-.09,.36-.09h.01Zm0,1.55v.73q-.18,.18-.18,.09c-.09-.1-.16-.22-.18-.36,0-.18-.09-.27-.09-.36s.09-.09,.18-.09h.27Zm0,1.18v.73h0c-.05,.05-.11,.08-.18,.09-.18-.2-.25-.47-.18-.73,.07,0,.13-.04,.18-.09h.18Zm0,1.09v.64h0c-.09,.09-.09,.18,0,.36v1.19c-.18-.16-.34-.34-.46-.55v-1.55c.16,0,.32-.02,.46-.09Zm0,2.46v.64c-.18,.09-.27,.09-.46,.18v-.73c.15-.04,.3-.07,.46-.09Zm0,1.55v.82c-.09,0-.18,.09-.36,.09l-.09,.09v-.82c.09-.09,.27-.09,.46-.18h-.01Zm0,1.46v.73c-.18,.09-.27,.09-.46,.18v-.73l.46-.18Zm0,2.83v.73c-.17-.1-.33-.22-.46-.36v-.46c.15,.02,.31,.05,.46,.09Zm-.46-8.3h0Zm-.64-30.92c.18,0,.36-.09,.64-.09v-1.28c-.18,0-.46,.09-.64,.09v1.28Zm.64-10.67c-.2,.1-.42,.16-.64,.18v1.55c.2-.07,.42-.11,.64-.09v-1.64h0Zm0,4.1c-.18,.09-.46,.09-.64,.18v1c.2-.1,.42-.16,.64-.18v-1Zm0,13.5v1c-.22,.02-.44,.08-.64,.18v-.91c.18-.09,.46-.18,.64-.27Zm0,2.92v1c-.07-.16-.16-.32-.27-.46-.09-.18-.18-.27-.18-.36s.18-.18,.46-.18h-.01Zm0,2v1.46c-.16-.02-.32,0-.46,.09h-.18v-1.46c.22,.02,.44-.02,.64-.09h0Zm0,8.12v1.46q-.09-.09-.18-.09c-.09,0-.27-.09-.46-.18v-1.19c.2,.09,.44,.09,.64,0h0Zm0,4.93v1.09h0c-.09-.36-.09-.73,0-1.09Zm0,2.37v.91s-.09,.04-.09,.09h0c-.09,.09-.18,.09-.18,0-.16-.1-.26-.27-.27-.46h-.09v-.36c.22-.03,.44-.09,.64-.18h-.01Zm0,3.28v.36s-.09,.04-.09,.09h0c-.18,0-.36,.09-.55,.09v-1.19l.64,.64h0Zm0,.47c-.14,.07-.3,.1-.46,.09h-.18v.55c.18,.27,.36,.55,.64,.91v-1.55h0Zm0,2.46v.73c-.21,.07-.42,.13-.64,.18v-.73h.3c.09-.09,.18-.09,.37-.18h-.03Zm0,1.64v.82c-.27,.18-.46,.37-.46,.46s-.09,.18,.09,.27l.37-.09v.73c-.09,0-.18,.09-.27,.09-.1,.11-.22,.2-.36,.27v-2.46c.18,0,.36-.09,.64-.09h-.01Zm0,3.92v.55c-.18-.16-.33-.34-.46-.55q-.09-.09-.18-.09v-.27c.09,0,.18,.09,.27,.18s.18,.09,.37,.18h0Zm-.64-6.2v-.27s.09,.04,.09,.09h0v.26l-.09-.08Zm0-4v-.27c.09,0,.18,.09,.27,.09s-.08,.26-.27,.26v-.08Zm-.18-35.2c-.01-.37,.02-.73,.09-1.09,0-.27-.09-.46-.27-.46v2.65c.11-.07,.23-.1,.36-.09v-1c-.1-.01-.2,.02-.27,.09l.09-.09h0Zm-.18,6.47c.09,0,.27-.09,.36-.09v-1.28c-.09,0-.27,.09-.36,.09v1.28Zm.36-10.58c-.11,.07-.23,.1-.36,.09v1.46h.36v-1.55Zm0,17.69v.91c-.14,.02-.26,.09-.36,.18v-1c.09,0,.18-.09,.27-.09h.09Zm0,4.74v1.46c-.09,.09-.18,.09-.36,.09v-1.46c.13,.01,.25-.02,.36-.09Zm0,8v1.19c-.14-.02-.26-.09-.36-.18v-1.06h.18q.09,.09,.18,.09v-.04Zm0,7.48v.47s-.08-.11-.09-.18q-.09-.09,0-.09s.09-.04,.09-.09h0v-.11Zm0,1.09v.38h0l-.36,.36v-1.09l.09,.09c.07,.14,.16,.26,.27,.36v-.1Zm0,1.37v1.19h-.36v-1.58l.36,.46v-.07Zm0,1.19s-.08,.11-.09,.18c0,.09,.09,.18,.09,.36v-.55h0Zm0,1.47v.36c-.06,.07-.16,.09-.24,.03-.01,0-.02-.02-.03-.03h-.09v-.82c.09,.09,.18,.27,.27,.36s.09,.09,.09,.18v-.08Zm0,1.09v.73c-.09,.09-.27,.09-.36,.18v-.82c.18,0,.27,0,.36-.09h0Zm0,1.55v2.46c-.14,.02-.26,.09-.36,.18v-2.46c.09-.09,.27-.09,.36-.18Zm0,3.47v.27c-.09-.18-.18-.27-.09-.37s.09,0,.09,.09h0Zm-.36-11.66v-.08q.09,0,0,.14v-.06Zm0-34.93h0c-.33-.09-.66-.12-1-.09v1.28c.07,.24,.11,.48,.09,.73h-.09v1h0v2.46c.19-.07,.35-.2,.46-.37,.08-.07,.17-.13,.27-.18,.18-.18,.27-.36,.18-.55-.12-.39-.15-.79-.09-1.19,.08-.14,.15-.3,.18-.46h0v-2.63Zm-1,8.21c.27-.09,.64-.09,1-.18v-1.18l-1,.27v1.09Zm1-10.67c-.36,.09-.73,.18-1,.27v1.28c.36,0,.64-.09,1-.09v-1.46Zm0,17.69v1c-.37,.11-.71,.3-1,.55v-1.28c.27-.09,.64-.18,1-.27h0Zm0,4.74v1.46c-.17,.07-.36,.11-.55,.09h-.46v-1.28l1-.27h0Zm0,7.84v1.09c-.36-.1-.69-.25-1-.46v-.82c.32,.11,.66,.17,1,.18h0Zm0,6.94v.18h-.09c-.36,.31-.67,.68-.91,1.09v-1.46c.09-.09,.09-.18,.18-.27s.09-.18,.27-.09l.55,.55h0Zm0,1.28c-.09-.09-.18,0-.27,.18-.14,.13-.26,.29-.36,.46-.18,0-.27,.09-.36,.09v1.64c.17-.17,.33-.35,.46-.55,.17-.25,.35-.5,.55-.73v-1.09h-.02Zm0,1.37v1.64c-.36,.09-.73,.18-1,.27v-.73c.09,.09,.09,0,.18,0,.22-.03,.44-.09,.64-.18-.18-.27-.21-.61-.09-.91,0-.09,.09-.09,.27-.09h0Zm0,2.55v.91h-.18c-.09,.09-.18,.09-.18,0-.18-.31-.18-.69,0-1-.09,0,0-.09,.09-.18,0,.09,.18,.18,.27,.36v-.09Zm0,1.73v.82c-.09,0-.18,.09-.27,.09s-.36,.09-.36-.09l-.36-.55c0-.09,.09-.09,.27-.09s.46-.09,.73-.18h-.01Zm0,1.64v2.54c-.36,.18-.64,.46-1,.64v-1.28c.27-.55,.36-.91,.09-1.28-.09-.18,0-.27,.36-.36,.17-.1,.36-.16,.55-.18v-.08Zm-1-2h0c.07,.07,.17,.1,.27,.09l.18-.18v-.09c-.09,0-.09-.09-.09-.27-.18-.09-.27-.36-.36-.64v1.09Zm0-41.41h-.09c-.27,0-.27,.18-.18,.55,.1,.24,.2,.48,.27,.73v-1.28Zm0,2c-.41,.05-.82,.17-1.19,.36-.46,.09-.91,.27-1.37,.37v4.65l.55,.82c0,.09,.09,.18,.27,.27,0,.09,.09,.27,.18,.27,.18,.18,.27,.18,.36,0,.36-.23,.77-.39,1.19-.46v-1.19l-.82,.27c-.18,.09-.37,0-.37-.36-.54-.66-.92-1.44-1.09-2.28-.14-.15-.21-.35-.18-.55,.74-.55,1.57-.95,2.46-1.19v-.98Zm.01-4.1v1.28c-.44,.1-.88,.25-1.28,.46-.55,.36-.82,.46-.91,.18-.11-.23-.17-.48-.18-.73,0-.18-.09-.46-.09-.64l-.09-.09v-.27c.09-.09,.18-.09,.37-.09s.18,.09,.46,.18c.59-.02,1.17-.11,1.73-.27h-.01Zm0,5.64v1.92c-.38,.24-.83,.37-1.28,.36-.36,.09-.46,0-.18-.27,.5-.48,.96-1,1.37-1.55,0-.18,.09-.27,.09-.46h0Zm0,12v1.4c-.35,.21-.69,.46-1,.73-.18,.27-.36,.27-.55,0-.39-.36-.7-.79-.91-1.28-.09-.18,0-.36,.27-.36,.74-.02,1.48-.14,2.19-.37v-.12Zm0,4.74v1.28c-.07,.07-.17,.1-.27,.09-.91,.18-1.64,.27-2.28,.46v-1.09l.82-.27c.56-.21,1.14-.36,1.73-.46h0Zm0,7.38v.82c-.6-.24-1.16-.57-1.64-1-.18-.18-.27-.27-.18-.46,.2,0,.39,.07,.55,.18,.41,.21,.84,.36,1.28,.46h0Zm0,6.93v1.46c0,.09-.09,.18-.09,.27l-.25,.61c0,.09,.09,.09,.37,0h0v2.55c-.2,.05-.39,.14-.55,.27-.39,.69-.58,1.48-.55,2.28q0,.09-.09,.09c-.25-.05-.47-.17-.64-.36,.07,1.47-.18,2.93-.73,4.29v-2.83c.2-.77,.29-1.57,.27-2.37,0-.46,0-.73,.09-.73s.18,.18,.27,.64c-.02,.19,.02,.38,.09,.55,.25-.49,.56-.95,.91-1.37-.36,.09-.55,.18-.64,.18s-.09,.09-.09,0c-.16-.23-.34-.45-.55-.64-.09,0,0,0,.18-.18,.66-.31,1.23-.78,1.66-1.37-.22,0-.43,.02-.64,.09-.23,.05-.44,.15-.64,.27-.09,.09-.18,.09-.18,0-.1-.22-.23-.44-.36-.64-.09-.09,0-.18,.18-.18s.64-.46,1.09-1.19,.73-1.19,.91-1.46v-.09l-.02-.14Zm0,5.47v-.09h-.34c-.14,.38-.14,.81,0,1.19,0,.09,.09,.18,.37,.18v-1.28h-.03Zm0,5.11c-.18,.18-.37,.46-.64,.73-.13,.07-.2,.22-.18,.37v.36c.09,.09,.18,.09,.27,.18,.16-.15,.35-.27,.55-.36v-1.28h0Zm-2.56-8.24c.23,.08,.48,.11,.73,.09,.18,0,.27-.09,.46-.27v-.27c-.09-.27-.27-.36-.37-.55-.3-.38-.52-.81-.64-1.28,0-.17-.07-.33-.18-.46v2.74Zm0-34.11c-.48,.1-.97,.16-1.46,.18-.18,.18-.27,.27-.27,.36,.46,1.41,1.04,2.78,1.73,4.1v-4.65h0Zm0-4.64c-.09,0-.09,.09,0,.27v-.27Zm0,23v1.09c-1.19,.27-1.82,.55-1.92,.73-.27,.18-.36,.18-.36,.09-.2-.21-.35-.46-.46-.73-.09-.36,0-.55,.09-.55,1.09-.27,2-.46,2.64-.64h0Zm0,13.01v2.64c-.25,.02-.49-.02-.73-.09-.18-.09-.37-.18-.37-.27-.23-.78-.1-1.62,.37-2.28,0-.1,.08-.17,.18-.18h.27c.09,0,.18,.09,.27,.18h.01Zm0,9v2.83c-.03,.16-.1,.32-.18,.46-.08,.32-.2,.63-.37,.91,0,.18-.09,.18-.18,.18-.09-.18-.37-.27-.64-.46-1.55-2-1.73-4.83-.55-8.57,.09-.27,.27-.37,.46-.18,.23,.2,.48,.38,.73,.55l.36,.36c-.1,.25-.26,.47-.46,.64-.71,.63-1.14,1.51-1.19,2.46-.21,.83-.24,1.7-.09,2.55,.09,.46,.18,.64,.27,.64,.39,.03,.75-.19,.91-.55,.47-.51,.79-1.13,.93-1.81h0Z"/><path class="cls-1" d="M517.75,477.7c-1.37-.64-.91-2.28-1.64-2.55-1.22-1.17-2.73-1.99-4.38-2.37-1.37-.36-2.74-.64-4.1-.91-1.28-2.28,1.64-4.83,.36-6.84l-.64-.55c-2.65-1.28-5.2-.73-7.48,0-1.37,.51-2.77,.91-4.2,1.19l-1.4,1.09-.27,.27,.27,.64c2.28,.27,3-1,4.93-1.28l.64,.27c.13,.66,.13,1.34,0,2-.46,1.73-1.46,3.37-1,4.83,.2,.81,.54,1.58,1,2.28,.71,.97,1.26,2.05,1.64,3.19,.8,.62,1.56,1.29,2.28,2l-1,1.92c-1.64,0-1.28,1.37-2.65,1.37l-.27,.27c-1.99,1.74-3.85,3.63-5.56,5.65-.73,.91-1.55,1.82-2.28,2.74,.46,1.86,1.22,3.63,2.27,5.23,.46,.73,.91,1.37,1.37,2,1.64,.27,2.28,1.64,3.56,1.64,.21-.07,.42-.13,.64-.18,3.1-1.09,4.65-2.83,7.48-3.37,1.55-.08,3.06-.55,4.38-1.37,.55-.36,1.09-.64,1.46-.91l1.55-2,1-1.92,1.09-.73h.91c2.28-2.83,7.11-4.2,10-5.11,1.64-.73,3-1,3.56-1.92,.36-2.65-1.55-4.29-1.92-6.93-4.08-1.92-8.08-.55-11.6,.36Z"/><path class="cls-1" d="M544.38,426.72c-1-.91-1.28-1.91-1.92-2.55l-1.92-.64-2.74-1.28c-9-1.64-18.79,2-26.08,6.48-1.51,.9-2.97,1.87-4.38,2.92-.96,.21-1.94,.3-2.92,.27-1.46,.91-3,1.64-4.56,2.46-1.91,.86-3.77,1.84-5.56,2.92-2.31,1.19-4.31,2.9-5.84,5-.32,.28-.69,.5-1.09,.64-1.73,.55-3.65-.09-4.74,1-.65,.76-1.42,1.41-2.28,1.91-3.56,1.37-6.11,3.28-8.85,4.93-.55,.64-1.19,2.28-1.55,2.55-5.93,1.37-7.75,5.84-12.68,8.12l-1.92-.27c1.28-7.48,2.19-14.68,5.84-20.52,1.76-1.22,3.28-2.75,4.48-4.52,.89-.58,1.93-.9,3-.91l.91,.37c.6,.76,1.23,1.49,1.91,2.19,2,.36,1.64,2.28,3.65,2,1.56-.43,2.99-1.21,4.2-2.28v-1.91c-1.28-.73-1.28-2.28-1.91-2.65l.36-1c1.28-.55,1.55-1.64,2.92-1.64,1.92,0,1.92,2,3.19,1.64,1.19-1.09,2.37-2,3.47-2.92,.79-.67,1.5-1.43,2.1-2.28,1.6,.27,3.21,.45,4.83,.55,1.92,.09,3.74,.18,5.56,.18h2.55v-1c.27-1.02,.84-1.94,1.64-2.64l.91-.64c2.37-.64,3-2,4.92-2.28,.55-.55,1.46-1.37,1.82-1.82,.09,0,.09-.09,.18-.09,10.31-4.83,15.87-13.32,23.07-19.79,.28-1.98,.03-3.99-.73-5.84-.81-.71-1.66-1.38-2.55-2-2.28-.64-3.56-1.92-5.84-2.28-5.56-1.91-9.76,1.64-13.68,3.92l-.46-.09-1.46-.18c-1-1.64,1-3.28,1-4.65,0-1.74,.16-3.48,.46-5.2,.28-1.51,.64-3,1.09-4.47,4-2.65,8.21-4.56,10.12-8.76,.36-1.37,0-1.91,.36-3-2-1.55-2.28-3.83-3.92-5.11-.64-2.65-2-3.92-2.28-5.84v-1.91l-1.37-1.37h-2.92c-.36,.09-.73,.27-1.09,.37-.96,.43-1.88,.95-2.74,1.55-.73,2.65-2.65,3.65-3.28,5.29l-.27,.91v1c1.19,3.92,0,7.11,.91,10.67-.37,.98-1.21,1.69-2.23,1.91v2c-.64,1.64-2.92,.64-3.28,1.64-.47,.76-.69,1.65-.64,2.55-.09,.18-.18,.27-.27,.46-.42,.75-.64,1.6-.64,2.46-1,2.64-2.37,4.29-3.28,8.48-.41,1.36-.96,2.67-1.64,3.92-.28,.61-.5,1.25-.64,1.91-1,3.28-1.64,7.11-3.28,9.76h-.91c-.36-6.48,.91-14,1.28-20.43-.91-7.21,.64-13.68,1.92-20.52-.64-1.92-1.64-2.28-1.92-3.92-1.09-.82-2.19-1.73-3.37-2.46-2.37-1.46-4.83-2.37-7.66-1.73,0,1.92-.37,3.28-.37,4.93,.73,2.28,1.92,3.47,2.28,5.84,0,7.11,1,14.23-.91,20.43,1.28,11.67-1,23.07,.27,34.11-2.46,1.1-5.14,1.63-7.84,1.55-1.28,.37-.55,2.37-1.64,2.37l-1.91-.37c-.91-2.92-2.28-5.2-.91-7.84-.68-6.82-.37-13.7,.91-20.43l-.91-1.92c1.92-7.84-.64-15.87-.64-23.35l-1-1.64h-1c-1.02,.23-1.92,.81-2.55,1.64-1.64,11.31-.64,23-1.64,34,1.28,4.29,.64,8.75,1.28,12.68l.64,.64c0,1.92,1,3.28,1.28,4.93l-1,1.91c-5.11,2.28-8.12,6.2-12.31,8.76-2.55,3.92-5.2,7.48-7.11,11.67-1.92,4.56-.64,9.76,0,14.68,1.64,2.55,2.92,5.84,4.56,8.12,1.28,0,2.92-1.09,3.92-1.09,1.92,.73,1.19,2.37,2.28,3h2.19c1.37-1.02,2.68-2.11,3.92-3.28l.36-.91c2.92-2.64,6.84-4.65,9.39-6.84,1.39-.48,2.71-1.15,3.92-2l.64-1.19c2,1.19,3.28,2.83,5.84,3.19,1.92-.01,3.84,.11,5.75,.36,1.73,.09,3.47-.09,4.65-1.37v-3.56c-1-.64-1-1.91-1.28-2.55,1-1.64,1.92-2.65,2.28-3.92,.42,.07,.85,.1,1.28,.09,2.1-.18,3.74-1.82,5.56-2h.27c2.92-3,6.48-4.29,9.12-6.29l2-1.19c.18-.09,.27-.18,.46-.27,1.28-.64,2-1.37,3.47-1.37,2.19,.91,4.83,0,6.75,0,1-1,2.28-1.37,2.55-2.28,1.37-1.37,3.65-1.37,4.92-1.91l.64-.73c4.92-2.28,9.12-1.28,13.68-2.55l1.28-1.64c-.02-1.34-.25-2.68-.68-3.95Zm-35.75-24.58l1-1.64c.7-.09,1.4-.09,2.1,0,1.37,.09,2.92,.46,4.38,.64v1l-2,1.92c-.87,.8-1.53,1.8-1.92,2.92-.12,.23-.28,.45-.46,.64-.75,.71-1.71,1.16-2.74,1.28l-1-1.92c.54-1.55,.76-3.2,.64-4.84Zm-8.76-16.23c.63-1.67,1.39-3.28,2.28-4.83,.48-.9,1.6-1.24,2.51-.75,.02,0,.03,.02,.04,.02l-.27,1.64c-1.64,5.2-1.64,10.76-2.92,16.23-.58,.04-1.15,.23-1.64,.55-.45,.18-.9,.33-1.37,.46-.55,1.28-1.91,1-2.55,2.55l-.27,.36-.73-1c1.32-5.19,2.97-10.29,4.92-15.28v.05Zm-6.84,25c.33-1.22,.76-2.41,1.28-3.56,.37-.52,.83-.95,1.37-1.28,.27,1.55-.73,3.47-.46,5.47l1.09,1.92v3.92c0,1.55-1.09,1.46-2,1.82-.46,.22-.82,.61-1,1.09l-.91-.64c-.1-2.95,.11-5.9,.63-8.8v.06Z"/><path class="cls-1" d="M485.55,439.4c.58-.31,1.19-.55,1.82-.73,.29-.05,.56-.14,.82-.27,1.28-1.92,.91-5.11,.91-7.48l-.64-.64c-.39,.08-.76,.24-1.09,.46-.91,.64-1.09,1.64-1.82,2.19l1.28,1.92c-.27,1.28-.91,1.64-1.28,2.64v1.91Z"/><path class="cls-2" d="M439.68,384.86c-2.55-1-5.47,.36-8.39-1,1-.27,1.64,0,2.92-.27l.91-.64c.65-.87,1-1.92,1-3-2.65-2.28-5.56-4.24-8.66-5.84-3.92-.91-8.85-3.56-13.68-2.83-.73-.73-3-1.37-3.28-3.28,4.2-.64,7.84,1.64,12.31,2.28,3.56,2.19,8.48,3.56,12.68,5.84l.91,1c1.37,0,1.37,.91,2.92,1.19,.79,.63,1.55,1.3,2.28,2-.02,1.06,.33,2.09,1,2.92l-1,1.64h-1.92Zm-45.41-6.85l.91-.91-.91,.91Zm4.2-1.64c0-1.92,1.64-3.47,2.28-5.84l.64,.36v1l-.91,1.92c-.62,.89-1.29,1.74-2,2.55h-.01Zm-2.92-1.91c.41-1.11,1.06-2.11,1.92-2.92l.37,.91c-.08,1.18-1.1,2.07-2.28,2h-.01Zm1.92-7.1l1.37-1.64h1.92c.91-2.92,2.55-4.47,3.92-6.48l1.64-1c.91-1.92,.91-3.28,1.64-4.83,1.19-1,1.64-1.92,2.55-2.37,6.2-1.92,13,0,18.6-1.92-2.37-1.55-5.56-2.83-7.57-4.47-1.91-.37-2.19-2.28-3.83-2.28,1.64,1.64,3.83,2.55,4.47,4.2v1l-1.64,1.28c-3.28,0-5.84,.64-8.66,.64l-.73-.64v-1c.27-1.92,1.28-2.64,1.64-3.83,.98-1.22,2.19-2.24,3.56-3-.64-.91-1.91-.91-2.55-1.19-1.16,.34-2.2,1-3,1.91-.91,2.93-2.33,5.68-4.19,8.12-6.48,2.28-13.59,.64-19.52,2.28l-1.64-1.09-.27-1.92c1.31-1.62,2.5-3.32,3.56-5.11-2.92,1.91-5.84,4.47-7.11,6.75l-1,1.64c.36,1.37,1.28,1.64,1.64,2.28l2,.64c6.11-2.64,13-3.19,19.52-3.19,.28,.92,.28,1.91,0,2.83-2.1,1.37-1.37,3.92-3,4.65-.05,3.53-2.61,5.09-3.34,7.74h.02Z"/><path class="cls-2" d="M385.27,307.98c-1.92-.91-4.56-.91-6.84-1.64-1.87-1.66-4.08-2.87-6.48-3.56l-.64-1.55c2.28-5.56-1.37-11.4,.91-17.42h1c2,1.82,4.83,3.74,7.11,6.29,1.37,1.37,1.37,4.2,3.28,5.56,5.56,0,9.76-4.56,15.6-3.92,1.37,0,2.55-1.28,3.28-2.55,.37-.73,1.55-.73,2.92-1.37,1.28,.36,1.64-.55,2.92-1.28l.36-.64c-.36-1.73-1.64-2.74-2.28-5v-1.91c-.53-1.75-1.33-3.41-2.37-4.92,.46-4.2,1.37-9.3,3.65-13.59,1.64-1.28,4.56-.37,6.84-.64,.91,4.93,0,10,2.55,15.23l1.37,1.37c4.2,1.92,9.76,.27,14.59,.91l2.92,1,.91-1c3.72-1.01,7.55-1.56,11.4-1.64,.36,1,3,.73,3.65,1.92-2.92,6.2-2.28,14.77-5.93,21.34-.27,.64-1.64,.64-2.92,1.19h-2.92c-.91-1.64-2.92-1.19-4.2-2.55,0-1,.64-1.64,.91-2.92l1.64-.64,1-1.92c-.23-.92-.57-1.8-1-2.64,.37-2.65,1.37-4.83,2.28-7.94l-.91-1.19c-6.2-1.09-14,0-19.24,3.47l-.27,1.09c.27,1.28,2.28,1.64,2.92,3.28-4.56,.27-8.76,2.28-13.68,3.92-3.19,1-6.75,2.55-11,3.83l-.64,1c-1.33,.43-2.57,1.11-3.65,2-3.19,1.19-6.48,5.11-8.12,8.39l-.92,.64Z"/><path class="cls-1" d="M406.12,177.38c-1.5,.86-3.09,1.57-4.74,2.1-1.11,.28-2.23,.46-3.37,.55-3.47,.27-7.11-.55-9.21-2.19l-1.38-1.7c-2.28-.64-2.92-2.55-4.2-2.92-1.64-.37-2-1.64-3.65-1.64l-.27,.64c1.92,3,2.55,7.21,4.2,9.76,2,1.64,2.64,3.56,4.56,4.47h3.92c1.28,.73,2.64,.73,2.92,1.37,.64,2.28,1.64,3.56,2.28,5.56,.3,0,.59,.09,.82,.27,.82,.46,1,1.37,1.82,1.37,1.28,0,1.92-.73,2.92-.73,.55-1.28,2.19-.91,2.55-1.55l.82-1.09c1.32-2.16,2.48-4.42,3.47-6.75,.86-.89,1.63-1.87,2.28-2.92,.77-2.23,1.72-4.4,2.83-6.48l-.55-1.64c-3.1,.6-5.56,2.15-8.02,3.52Z"/><path class="cls-1" d="M468.96,151.84c-.64-1.28-.64-2.65-1.37-2.92l-.91-.64c-.27-1.37-1-1.91-1-3-3.92-3.83-6.48-9.39-11.4-11.95-1.28-.36-1.92-.91-2.92-.91h-5.84c-.8,.59-1.66,1.11-2.55,1.55-.61,.29-1.26,.51-1.92,.64-2.06,.39-4.06,1.06-5.93,2-1.19-.73-2.83-.73-2.83-2.28,0-4.92,1-9.12,1-13.68l-1.37-1.91h-14.22l-1,1.28,.27,.64c1.37,1.28,1.64,1.64,3,2,.78,.63,1.42,1.41,1.91,2.28,0,2.19-.73,3.83-.73,5.84,1,2.83,3.65,6.48,2.65,9.39l-1.64,1.28c-5.29,.09-10.67,1.09-16.05,1.92-2.74,.46-5.47,.91-8.12,1.19-3.29,.47-6.62,.62-9.94,.46-1.55-1.28-2.92-2.28-4.2-3.56h-1c-.64,3.56-1.64,6.84-1.64,10,1.05,.72,2.05,1.51,3,2.37l.91,1.55h1c1.28,.36,.64,2.28,1.55,2.28,.97,.28,1.99,.41,3,.37,1.5,1.12,3.12,2.07,4.83,2.83l2.28,2.28s.11,.08,.18,.09c.88,.35,1.8,.56,2.74,.64,1.22,.78,2.33,1.73,3.28,2.83l2,.73s.04-.09,.09-.09c.8-.76,1.73-1.38,2.74-1.82,1.62-2.75,3.72-5.19,6.2-7.2,1.28-2.92,3.92-4.92,4.56-7.75l2-.36,.91,1.28c1.64,31.19,.27,61.74,1.28,92.57l2-1.37c-.73-4.83,0-9,0-13.59,.64-1.28,.64-2.55,1.19-2.92,.46-.09,.82-.09,1.19-.18,.92-.09,1.84-.03,2.74,.18l1.37,1c1-1.28,1-2.92,1.64-3.65,.27-17.15,.64-34.66,.91-51.53,2.28-1.64,3.92-3.28,6.48-3.92h1.99c1.28-.64,1.64-1.64,2.64-2.28,1.45-.48,2.95-.81,4.47-1,2.04-.52,3.88-1.63,5.29-3.19,1.99,0,3.96-.34,5.84-1,2.19-1.92,5.47-2.55,7.75-2.92,.7-2.29-.67-3.84-.3-5.85Zm-42.86,16c1.09-.91,1-2.19,2.1-3.1,.29-.2,.59-.39,.91-.55,.64,2,0,3.65,.27,5.84-.16,.76-.58,1.43-1.19,1.91-.61,.42-1.38,.55-2.1,.36l-.64-.91c-.09-1.23,.13-2.47,.64-3.59v.04Zm4.57,56.73c-.95-.22-1.81-.73-2.46-1.46l-.46-.46c-.73-2.28-1.91-3.56-2.92-5.84,1.64-13,1.64-27.27,2.19-40.95,.33-.38,.74-.69,1.19-.91,.73-.36,1.55-.64,2.46-1l.73,.27c.27,16.23-1.09,32.19,.27,48.7l-1,1.65Zm21.71-76c-1.91,4.2-5.65,7.21-9.39,10.49-2.5,2.01-4.79,4.28-6.84,6.75l-1.92,.64c-.64,.64-.27,1.64-1.92,2.28-.64-9,1.92-18.51,1.28-28.27,1.28-1,3.56-1.55,4.47-3.56,1-.64,2.55-.27,3.92-1,.27-.3,.61-.53,1-.64,.56-.08,1.1-.3,1.55-.64l1.92,.64c1.9,.74,3.76,1.59,5.56,2.55,2,2.99,2.64,7.46,.36,10.75h.01Z"/><path class="cls-9" d="M515.27,475.97c-1.28-.64-.91-2.28-1.64-2.55-1.2-1.19-2.71-2.01-4.36-2.38-1.28-.37-2.74-.55-4-.91-1.37-2.28,1.64-4.83,.27-6.75l-.64-.64c-2.64-1.19-5.11-.73-7.48,0-1.38,.5-2.78,.92-4.2,1.28l-1.28,1-.36,.27,.36,.64c2.19,.27,2.92-.91,4.93-1.28l.55,.27v.09c.18,.62,.18,1.29,0,1.91-.37,1.73-1.46,3.47-1,4.83,.24,.8,.58,1.56,1,2.28,.64,1.19,1.46,2,1.64,3.28,.84,.54,1.6,1.19,2.28,1.92l-1,1.92c-1.64,0-1.28,1.37-2.55,1.37-.09,.09-.27,.18-.36,.27-1.94,1.77-3.77,3.65-5.47,5.65-.82,.91-1.55,1.91-2.28,2.83,.42,1.83,1.2,3.57,2.28,5.11,.46,.73,.91,1.37,1.28,2,1.64,.36,2.28,1.64,3.65,1.64,.18-.09,.36-.09,.55-.18,3.1-1,4.74-2.83,7.48-3.37,1.54-.04,3.05-.5,4.35-1.33,.54-.26,1.06-.57,1.55-.91l1.55-1.92,1-2,1-.64h.9c2.28-2.92,7.21-4.29,10.12-5.2,1.64-.64,2.92-1,3.56-1.91,.27-2.65-1.64-4.2-1.92-6.84-4.27-2.03-8.1-.66-11.76,.25Z"/><path class="cls-9" d="M483.09,437.75c.56-.37,1.17-.65,1.82-.82,.28,0,.56-.07,.82-.18,1.37-2,.91-5.2,.91-7.48l-.55-.64c-.44,.02-.85,.18-1.19,.46-.91,.55-1.09,1.64-1.82,2.1l1.37,1.91c-.37,1.37-1,1.64-1.37,2.65v2Z"/><path class="cls-9" d="M542.01,424.99c-.71-.81-1.38-1.66-2-2.55l-1.92-.64-2.64-1.28c-9-1.64-18.79,2-26.17,6.48-1.51,.9-2.97,1.87-4.38,2.92-.95,.29-1.93,.41-2.92,.37-1.46,.82-3,1.64-4.56,2.37-1.92,.91-3.74,1.92-5.47,2.92-2.29,1.21-4.29,2.92-5.84,5-.33,.32-.74,.54-1.19,.64-1.73,.64-3.65-.09-4.74,1-.67,.73-1.4,1.4-2.19,2-3.65,1.28-6.2,3.19-8.85,4.83-.59,.83-1.11,1.72-1.55,2.64-5.93,1.28-7.84,5.84-12.77,8l-1.92-.27c1.37-7.48,2.28-14.68,5.84-20.52,1.78-1.2,3.32-2.72,4.56-4.47,.83-.66,1.86-1.02,2.92-1l1,.36c.57,.82,1.21,1.58,1.92,2.28,1.92,.27,1.64,2.19,3.56,1.91,1.58-.37,3.03-1.16,4.2-2.28v-1.92c-1.19-.73-1.19-2.28-1.92-2.64l.36-.91c1.28-.64,1.55-1.64,2.92-1.64,1.91,0,1.91,1.92,3.28,1.64,1.09-1.09,2.28-2,3.37-3,.84-.64,1.58-1.41,2.19-2.28,1.6,.27,3.21,.46,4.83,.55,1.82,.09,3.65,.18,5.47,.18h2.64v-1c.23-1.02,.81-1.92,1.64-2.55l.91-.73c2.28-.64,2.92-1.92,4.92-2.28l1.73-1.73,.18-.18c10.4-4.83,16-13.32,23.07-19.79,.31-1.97,.09-3.98-.64-5.84-1-.91-2-1.37-2.64-1.92-2.19-.64-3.56-2-5.84-2.28-5.56-2-9.76,1.64-13.59,3.83h-.51l-1.46-.27c-.91-1.64,1-3.28,1-4.56,.01-1.76,.17-3.51,.46-5.24,.27-1.46,.73-2.92,1.09-4.47,4-2.55,8.21-4.56,10.22-8.76,.27-1.28,0-1.91,.27-2.92-1.92-1.55-2.28-3.92-3.92-5.2-.64-2.64-1.92-3.83-2.28-5.84v-1.92l-1.28-1.37h-3c-.36,.18-.73,.27-1.09,.46-.97,.4-1.89,.92-2.74,1.55-.64,2.55-2.65,3.56-3.19,5.2l-.36,.91v1c1.28,3.92,0,7.11,.91,10.67-.35,.99-1.17,1.74-2.19,2v1.92c-.64,1.64-3,.73-3.28,1.64-.47,.76-.69,1.65-.64,2.55-.15,.16-.27,.35-.36,.55-.37,.77-.56,1.61-.55,2.46-1.09,2.55-2.37,4.2-3.28,8.39-.43,1.35-.98,2.66-1.64,3.92-.31,.6-.52,1.25-.64,1.92-1,3.28-1.64,7.21-3.28,9.76h-.91c-.46-6.48,.91-14,1.19-20.43-.91-7.2,.64-13.68,2-20.52-.64-1.92-1.64-2.28-2-3.83-1.06-.93-2.19-1.78-3.37-2.55-2.21-1.52-4.92-2.13-7.57-1.73,0,2-.46,3.28-.46,4.92,.73,2.28,2,3.56,2.28,5.84,0,7.11,1,14.32-.91,20.43,1.37,11.67-.91,23.07,.27,34.11-2.43,1.1-5.08,1.63-7.75,1.55-1.37,.46-.64,2.37-1.64,2.37l-1.92-.36c-1-2.92-2.28-5.2-1-7.84-.64-6.81-.3-13.67,1.02-20.38l-1-2c2-7.75-.64-15.87-.64-23.35l-1-1.64h-1c-1,.26-1.9,.83-2.55,1.64-1.64,11.4-.64,23.07-1.64,34,1.37,4.29,.73,8.85,1.37,12.68l.55,.64c0,2,1,3.28,1.37,4.92l-1,1.92c-5.2,2.28-8.12,6.2-12.31,8.76-2.64,3.92-5.29,7.48-7.2,11.67-1.92,4.65-.64,9.76,0,14.68,1.64,2.55,2.92,5.84,4.56,8.12,1.28,0,2.92-1,3.92-1,2,.64,1.28,2.28,2.28,2.92h2.28c1.37-1.02,2.68-2.11,3.92-3.28l.27-.91c2.92-2.64,6.84-4.56,9.39-6.84,1.39-.48,2.71-1.15,3.92-2l.64-1.19c2,1.19,3.28,2.83,5.84,3.19,1.92-.01,3.84,.11,5.75,.36,1.82,.09,3.47-.09,4.74-1.28v-3.61c-1-.64-1-1.92-1.37-2.55,1-1.64,2-2.65,2.28-3.92,.45,.12,.91,.15,1.37,.09,2.1-.18,3.74-1.82,5.47-2h.36c2.83-2.92,6.48-4.29,9.12-6.2l1.92-1.28c.16-.07,.32-.16,.46-.27,1.28-.64,2-1.37,3.47-1.37,2.28,.91,4.83,0,6.75,0,1.09-1,2.28-1.28,2.64-2.28,1.28-1.28,3.56-1.28,4.93-1.92l.55-.73c4.92-2.28,9.12-1.19,13.68-2.55l1.37-1.64c-.08-1.33-.32-2.65-.72-3.93Zm-35.84-24.63l1-1.64c.7-.09,1.4-.09,2.1,0,1.46,.09,2.92,.46,4.38,.64v1l-1.92,2c-.92,.72-1.59,1.71-1.91,2.83-.16,.23-.34,.45-.55,.64-.74,.74-1.7,1.22-2.74,1.37l-1-2c.55-1.55,.77-3.2,.64-4.84Zm-8.76-16.14c.73-1.73,1.46-3.37,2.28-4.92,.5-.9,1.64-1.23,2.55-.73l-.27,1.64c-1.64,5.2-1.64,10.76-2.92,16.32-.57,.02-1.14,.18-1.64,.46-.4,.21-.84,.36-1.28,.46-.64,1.28-2,1-2.55,2.55l-.36,.37-.73-1c1.31-5.15,2.95-10.21,4.92-15.15h0Zm-6.84,24.92c.34-1.2,.8-2.36,1.37-3.47,.3-.56,.74-1.03,1.28-1.37,.36,1.55-.73,3.56-.37,5.47l1,1.92v3.92c0,1.64-1.09,1.46-1.92,1.91-.47,.16-.84,.53-1,1l-1-.55c-.09-2.96,.12-5.92,.64-8.83Z"/><path class="cls-5" d="M437.22,383.22c-2.55-1.09-5.47,.27-8.3-1.09,.91-.27,1.64,0,2.83-.27l1-.64c.58-.87,.89-1.88,.91-2.92-2.61-2.33-5.52-4.29-8.66-5.84-3.92-1-8.85-3.65-13.68-2.92-.64-.73-2.92-1.37-3.28-3.28,4.29-.64,7.84,1.64,12.4,2.28,3.56,2.28,8.48,3.56,12.59,5.84l.91,1c1.37,0,1.37,.91,3,1.28,.82,.57,1.58,1.21,2.28,1.92-.06,1.09,.3,2.16,1,3l-1,1.64h-2Zm-45.33-6.93l.91-.91-.91,.91Zm4.2-1.64c0-1.92,1.64-3.47,2.28-5.84l.55,.46v.87l-.91,1.92c-.64,.64-1,1.64-1.91,2.55v.04Zm-3.01-1.92c.46-1.1,1.14-2.09,2-2.92l.27,1c-.09,1.15-1.1,2.01-2.25,1.91,0,0-.02,0-.03,0h.01Zm2-7.1l1.28-1.64h2c.91-2.92,2.55-4.47,3.83-6.48l1.64-1c1-1.91,1-3.28,1.64-4.83,1.28-1,1.64-1.92,2.55-2.28,6.2-2,13,0,18.6-2-2.37-1.55-5.56-2.83-7.48-4.47-1.91-.36-2.28-2.28-3.92-2.28,1.64,1.64,3.92,2.55,4.56,4.2v1l-1.63,1.3c-3.28,0-5.84,.73-8.75,.73l-.73-.73v-1c.37-2,1.37-2.64,1.64-3.92,1.37-1.37,2.55-2.64,3.65-2.92-.64-1-2-1-2.64-1.28-1.14,.35-2.15,1.02-2.92,1.92-.91,2.93-2.34,5.68-4.2,8.12-6.48,2.28-13.68,.64-19.52,2.28l-1.64-1-.36-2c1.34-1.61,2.56-3.32,3.65-5.11-2.83,1.74-5.29,4.04-7.21,6.75l-.91,1.64c.27,1.37,1.28,1.64,1.55,2.28l2,.73c6.2-2.65,13-3.28,19.52-3.28,.28,.92,.28,1.91,0,2.83-2,1.37-1.37,3.92-2.92,4.65,0,3.59-2.65,5.14-3.29,7.78h.01Z"/><path class="cls-5" d="M382.86,306.24c-2-.91-4.65-.91-6.93-1.64-1.85-1.66-4.07-2.85-6.48-3.47l-.64-1.64c2.28-5.56-1.28-11.4,1-17.42h1c1.92,1.82,4.83,3.74,7.11,6.29,1.28,1.37,1.28,4.29,3.28,5.56,5.47,0,9.76-4.47,15.6-3.92,1.28,0,2.55-1.28,3.28-2.55,.27-.64,1.55-.64,2.83-1.28,1.37,.27,1.64-.64,3-1.37l.27-.64c-.27-1.64-1.64-2.74-2.28-4.93v-2c-.49-1.75-1.26-3.41-2.28-4.92,.29-4.72,1.5-9.34,3.56-13.59,1.64-1.28,4.56-.27,6.84-.64,1,4.93,0,10,2.64,15.32l1.28,1.28c4.19,1.92,9.76,.36,14.59,.91l2.92,1,1-1c3.72-1.02,7.55-1.57,11.4-1.64,.27,1.09,2.92,.73,3.56,2-2.92,6.11-2.28,14.68-5.84,21.25-.36,.64-1.64,.64-3,1.28h-2.8c-1-1.64-3-1.28-4.29-2.64,0-1,.64-1.55,1-2.92l1.64-.64,1-1.91c0-.64-.73-1.64-1-2.55,.27-2.64,1.28-4.93,2.28-8l-1-1.19c-6.11-1-14,0-19.15,3.47l-.36,1.09c.36,1.37,2.28,1.64,2.92,3.28-4.56,.36-8.76,2.28-13.68,3.92-3.19,1-6.75,2.55-10.94,3.92l-.73,1c-1.32,.35-2.54,1-3.56,1.92-3.19,1.28-6.48,5.11-8.12,8.39l-.92,.62Z"/><path class="cls-9" d="M403.66,175.64c-1.46,.88-3.02,1.59-4.65,2.1-1.13,.32-2.3,.51-3.47,.55-3.47,.27-7-.55-9.21-2.19l-1.37-1.64c-2.19-.64-2.83-2.55-4.19-2.92-1.64-.36-1.92-1.64-3.56-1.64l-.37,.64c2,3,2.64,7.21,4.29,9.76,1.92,1.64,2.65,3.56,4.47,4.56h3.92c1.37,.64,2.65,.64,3,1.28,.55,2.28,1.64,3.56,2.19,5.56,.28,.06,.56,.15,.82,.27,.91,.55,1.1,1.37,1.82,1.37,1.28,0,1.92-.73,2.92-.73,.64-1.28,2.28-.91,2.55-1.55,.3-.34,.58-.71,.82-1.09,1.32-2.13,2.48-4.36,3.47-6.66,.85-.93,1.61-1.94,2.28-3,.8-2.23,1.78-4.4,2.92-6.48l-.64-1.64c-3.09,.62-5.46,2.08-8.01,3.45Z"/><path class="cls-5" d="M466.49,150.14c-.64-1.28-.64-2.65-1.28-2.92l-1-.64c-.27-1.28-1-1.92-1-2.92-3.83-3.92-6.48-9.48-11.4-12-1.19-.27-1.82-.91-2.83-.91h-5.84c-.82,.57-1.67,1.09-2.55,1.55-.64,.32-1.31,.57-2,.73-2.03,.33-4,.98-5.84,1.91-1.28-.73-2.92-.73-2.92-2.28,0-4.92,1-9.12,1-13.59l-1.28-2h-14.28l-1,1.28,.36,.73c.76,.91,1.78,1.58,2.92,1.91,.78,.63,1.43,1.4,1.92,2.28,0,2.28-.64,3.92-.64,5.84,1,2.92,3.56,6.48,2.65,9.39l-1.64,1.28c-5.42,.31-10.81,.98-16.14,2-2.64,.36-5.38,.82-8.12,1.19-3.3,.39-6.62,.51-9.94,.36-1.46-1.11-2.86-2.3-4.2-3.56h-.91c-.73,3.56-1.64,6.84-1.64,10,1.01,.72,1.98,1.52,2.88,2.37l1,1.55h1c1.19,.37,.64,2.37,1.55,2.37,.96,.21,1.94,.3,2.92,.27,1.47,1.18,3.1,2.17,4.83,2.92,1.09,1,1.64,1.64,2.28,2.19,.05,.05,.11,.08,.18,.09,.91,.35,1.86,.56,2.83,.64,1.64,.91,2.19,1.91,3.28,2.92l1.92,.64s.09-.04,.09-.09c.83-.77,1.79-1.38,2.83-1.82,1.28-2.64,4.2-5.56,6.11-7.2,1.37-2.92,3.92-4.83,4.65-7.75l1.91-.27,.91,1.19c1.64,31.19,.36,61.74,1.37,92.57l1.91-1.28c-.64-4.83,0-9,0-13.68,.64-1.28,.64-2.55,1.28-2.83,.36-.09,.73-.18,1.19-.27,.92-.11,1.86-.01,2.74,.27l1.28,.91c1-1.28,1-2.92,1.64-3.65,.37-17.06,.64-34.66,.91-51.53,2.28-1.64,3.92-3.28,6.48-3.92h2c1.28-.64,1.64-1.64,2.55-2.28,1.5-.43,3.02-.76,4.56-1,2.01-.52,3.83-1.63,5.2-3.19,1.99,.01,3.97-.33,5.84-1,2.28-1.91,5.56-2.55,7.84-2.83,.65-2.42-.58-3.94-.36-5.94Zm-42.77,16c1.09-.82,1-2.1,2.1-3.1,.24-.22,.52-.41,.82-.55,.64,2,0,3.65,.36,5.93-.18,.72-.6,1.36-1.19,1.82-.62,.41-1.38,.54-2.1,.36l-.64-.91c-.09-1.24,.13-2.49,.65-3.62v.07Zm4.47,56.82c-.96-.2-1.8-.75-2.37-1.55-.18-.09-.27-.27-.46-.46-.73-2.28-2-3.56-3-5.84,1.64-13,1.64-27.27,2.28-40.86,.29-.45,.7-.8,1.19-1,.77-.38,1.56-.72,2.37-1l.73,.36c.27,16.14-1,32.19,.27,48.7l-1.01,1.65Zm21.8-76c-2,4.1-5.65,7.11-9.39,10.4-2.51,2.04-4.83,4.3-6.93,6.75l-1.82,.64c-.64,.64-.37,1.64-2,2.28-.64-9,2-18.42,1.37-28.18,1.19-1,3.47-1.64,4.47-3.65,1-.55,2.55-.27,3.83-1,.27-.32,.67-.52,1.09-.55,.46-.18,1-.36,1.55-.64l1.92,.64c1.93,.66,3.8,1.51,5.56,2.55,1.9,2.87,2.63,7.43,.35,10.71v.05Z"/><path class="cls-5" d="M312,450.14v-.46h.09v.46h-.09Zm0-6.66l3.47,6.48,3-.09v-.46c-.57-.06-1.1-.28-1.55-.64-.57-.59-1.03-1.26-1.37-2l-2.46-4.63c.86-.31,1.59-.88,2.1-1.64,.43-.81,.62-1.73,.55-2.64,.04-.84-.18-1.67-.64-2.37-.34-.59-.85-1.07-1.46-1.37-.52-.21-1.08-.3-1.64-.27v1c.49,.09,.93,.39,1.19,.82,.51,.72,.76,1.58,.73,2.46,.02,.9-.23,1.79-.73,2.55-.33,.38-.74,.69-1.19,.91v1.89Zm15-10.4l.09,5.65h-.27c-.11-.87-.33-1.73-.64-2.55-.2-.61-.58-1.15-1.09-1.55-.41-.35-.92-.55-1.46-.55-.59,0-1.14,.32-1.46,.82-.36,.51-.55,1.11-.55,1.73,.03,.49,.19,.96,.46,1.37,.65,.95,1.49,1.75,2.46,2.37,1,.82,1.73,1.46,2.19,1.82,.36,.48,.66,1,.91,1.55,.18,.62,.28,1.26,.27,1.91,.03,1.13-.28,2.25-.91,3.19-.56,.86-1.52,1.38-2.55,1.37-.31,.02-.61-.01-.91-.09-.18-.09-.55-.18-1.09-.46-.31-.17-.65-.3-1-.36-.09,0-.18,.09-.27,.18s-.09,.36-.18,.73h-.27l-.09-5.56h.36c.11,.89,.26,1.78,.46,2.65,.27,.56,.68,1.03,1.19,1.37,.43,.43,1.03,.66,1.64,.64,.62-.08,1.2-.37,1.64-.82,.37-.57,.56-1.24,.55-1.92,0-.41-.09-.82-.27-1.19-.12-.46-.37-.88-.73-1.19-.54-.53-1.11-1.02-1.73-1.46-.73-.6-1.44-1.24-2.1-1.92-.33-.45-.6-.94-.82-1.46-.26-.61-.38-1.26-.36-1.92-.05-1.07,.27-2.13,.91-3,.47-.81,1.35-1.29,2.28-1.28,.67,.03,1.33,.22,1.92,.55,.27,.27,.46,.36,.64,.36,.14-.02,.26-.09,.36-.18,.08-.27,.14-.54,.18-.82l.24,.02Zm8.48,16.69v.46l-4.83-.18v-.46h.36c.42,.04,.81-.18,1-.55,.24-.57,.34-1.2,.27-1.82l.09-10.58c.03-.55,0-1.1-.09-1.64-.01-.21-.11-.41-.27-.55-.24-.17-.53-.26-.82-.27h-.36v-.46l4.83,.18v.46h-.46c-.41,0-.79,.2-1,.55-.16,.59-.22,1.21-.18,1.82l-.18,10.58c0,.82,.09,1.37,.09,1.64,.07,.19,.19,.35,.36,.46,.18,.22,.44,.36,.73,.36h.46Zm11.95-15.5l.09,3.83h-.37c.02-.49-.04-.99-.18-1.46-.14-.42-.4-.8-.73-1.09-.32-.23-.7-.36-1.09-.37l-1.64-.09-.09,12.49c-.08,.64-.01,1.29,.18,1.91,.25,.31,.61,.5,1,.55h.37v.46l-4.74-.18v-.46h.36c.44,.03,.84-.23,1-.64,.18-.18,.18-.82,.18-1.73l.18-12.4-1.37-.09c-.37-.03-.73,0-1.09,.09-.33,.22-.59,.54-.73,.91-.28,.53-.44,1.13-.46,1.73h-.27l.18-3.83,9.21,.36h.01Zm10.12,1.2l3.92,.37v.46l-.18-.09c-.24,.03-.46,.12-.64,.27-.32,.19-.6,.44-.82,.73-.34,.5-.64,1.01-.91,1.55l-2.92,6-.09,4c-.09,.64-.06,1.28,.09,1.91,.23,.34,.59,.57,1,.64h.36v.46l-4.74-.46v-.46l.36,.09c.43,0,.84-.2,1.09-.55,.14-.56,.2-1.15,.18-1.73l.18-3.83-2.83-7.11c-.37-.82-.64-1.37-.73-1.55-.16-.34-.41-.62-.73-.82-.16-.11-.35-.18-.55-.18v-.46l4.83,.46v.46h-.27c-.26-.07-.54,0-.73,.18-.18,.09-.27,.36-.36,.73,.09,.56,.25,1.11,.46,1.64l2.19,5.47,2.37-4.83c.3-.5,.48-1.06,.55-1.64,.02-.22,0-.44-.09-.64-.07-.14-.16-.27-.27-.39-.22-.12-.47-.19-.73-.18v-.5Zm-45.5-1.64v1c-.17-.07-.36-.11-.55-.09-.47,.02-.93,.11-1.37,.27l.18,6.75h.46c.43,0,.86-.06,1.28-.18v1.92l-.55-1c-.21,.07-.42,.1-.64,.09h-.58l.18,4.74c-.06,.65,.03,1.3,.27,1.91,.21,.29,.55,.46,.91,.46h.36v.45l-4.74,.18v-.46h.46c.44-.04,.83-.32,1-.73,.15-.59,.18-1.21,.09-1.82l-.18-10.49c.01-.65-.11-1.3-.36-1.91-.17-.34-.53-.56-.91-.55l-.46,.09v-.46l4.1-.18h1.05Zm-82.54,35.49v-4.16h0l.27-.18-.27,4.38v-.04Zm0-16.78h.46c.28,0,.56,.06,.82,.18,.33,.24,.64,.51,.91,.82l1.82,11c.12,.57,.18,1.15,.18,1.73-.12,.46-.46,.84-.91,1l-.36,.09,.09,.46,3.74-1.28-.09-.46-.36,.09c-.33,.15-.71,.12-1-.09-.31-.56-.49-1.18-.55-1.82l-1.64-9.76,9.39,10.31,.27-.09-2.28-13.41c-.12-.57-.18-1.15-.18-1.73,.12-.46,.46-.84,.91-1l.37-.09v-.46l-3.83,1.37,.09,.36,.37-.09c.33-.18,.75-.11,1,.18,.31,.53,.5,1.12,.55,1.73l1.55,9.12-8.71-9.54-2.64,.91v.46h.03Zm24.44-8.11l-.09-.46,3.92-1.09,.09,.46-.46,.09c-.46,.2-.79,.6-.91,1.09-.1,.58-.07,1.17,.09,1.73l.82,6.57c.23,1.26,.29,2.55,.18,3.83-.1,.92-.44,1.8-1,2.55-.6,.84-1.47,1.45-2.46,1.73-.96,.32-2.01,.26-2.92-.18-.71-.56-1.27-1.28-1.64-2.1-.41-1.27-.66-2.59-.73-3.92l-.91-6.29c0-.65-.19-1.28-.55-1.82-.21-.29-.61-.36-.91-.18l-.46,.09v-.46l4.74-1.28,.09,.46-.46,.09c-.44,.12-.79,.47-.91,.91-.1,.61-.07,1.23,.09,1.82l.91,7c.09,.55,.18,1.28,.37,2.1,.14,.62,.38,1.2,.73,1.73,.24,.39,.59,.71,1,.91,.5,.18,1.05,.18,1.55,0,.71-.21,1.35-.62,1.82-1.19,.48-.61,.8-1.33,.91-2.1,.11-1.22,.04-2.45-.18-3.65l-.82-6.57c-.07-.63-.26-1.25-.55-1.82-.26-.27-.64-.37-1-.27l-.37,.18,.02,.04Zm5.11-2.19l3-.73,8.3,10.4-1.19-9.21c0-.64-.16-1.26-.46-1.82-.25-.29-.64-.39-1-.27l-.36,.09-.09-.46,3.92-.91v.46l-.36,.09c-.45,.06-.81,.38-.91,.82-.1,.6-.1,1.22,0,1.82l1.64,13.59h-.27l-8.85-11.13,1.19,9.85c0,.64,.16,1.26,.46,1.82,.25,.29,.64,.39,1,.27l.36-.09,.09,.46-3.92,.91v-.46l.36-.09c.45-.06,.81-.38,.91-.82,.1-.6,.1-1.22,0-1.82l-1.37-11.22c-.22-.35-.54-.63-.91-.82-.2-.19-.46-.32-.73-.36-.25,0-.49,.02-.73,.09l-.09-.46h0Zm20.79,11.67v.36l-4.74,.82-.09-.46,.37-.09c.46,.02,.88-.28,1-.73,.1-.6,.1-1.22,0-1.82l-.82-10.49c-.04-.55-.13-1.1-.27-1.64-.07-.19-.19-.35-.36-.46-.25-.14-.53-.21-.82-.18l-.36,.09-.09-.46,4.83-.73v.36l-.37,.09c-.42,.05-.77,.33-.91,.73-.2,.62-.23,1.28-.09,1.92l.91,10.49c.02,.52,.08,1.04,.18,1.55,.08,.22,.24,.38,.46,.46,.19,.19,.47,.26,.73,.18h.44Zm12.4-18.23v.5c-.34,.1-.64,.33-.82,.64-.31,.6-.53,1.25-.64,1.92l-2.77,14.44h-.27l-5.38-13.22c-.16-.44-.34-.86-.55-1.28-.17-.2-.39-.36-.64-.46-.18-.18-.46-.18-.82-.18v-.46l4.56-.73v.46c-.36,.06-.69,.26-.91,.55-.19,.19-.26,.47-.18,.73,.07,.63,.26,1.25,.55,1.82l3.65,9,1.82-9.85c.17-.65,.24-1.33,.18-2-.03-.24-.12-.46-.27-.64-.23-.2-.52-.29-.82-.27h-.18v-.46l3.47-.55,.02,.04Zm5.75,.09l.28,6.41,2.46-.18c.64-.09,1.09-.18,1.28-.55,.31-.62,.44-1.31,.36-2h.37l.27,5.65-.36,.09c-.03-.53-.12-1.05-.27-1.55-.1-.27-.3-.5-.55-.64-.32-.14-.67-.17-1-.09l-2.46,.18,.27,5.38c-.05,.43-.02,.86,.09,1.28,0,.18,.09,.27,.27,.36s.27,.09,.64,.09l1.92-.18c.47,.03,.94-.07,1.37-.27,.31-.21,.56-.49,.73-.82,.42-.75,.75-1.55,1-2.37h.27l-.73,4.1-8.66,.82v-.46h.37c.27-.07,.52-.19,.73-.37,.17-.18,.3-.4,.36-.64v-1.55l-.55-10.58c.07-.65-.02-1.31-.27-1.92-.23-.32-.62-.46-1-.36h-.46v-.42l8.66-.73,.27,3.56h-.27c-.18-.82-.36-1.37-.46-1.73-.15-.3-.41-.53-.73-.64-.35-.14-.73-.17-1.09-.09l-3.11,.22Zm-68.49,16.32v.46c-.07,.07-.17,.1-.27,.09l-.09-.46,.37-.09h0Zm0,13v4.19l-8.39,2.92-.09-.46,.36-.09c.3-.1,.55-.29,.73-.55,.18-.2,.28-.46,.27-.73,0-.27-.09-.73-.18-1.55l-1.82-10.31c0-.61-.15-1.21-.46-1.73-.29-.29-.73-.36-1.09-.18l-.37,.18-.09-.46,8.39-2.92,.73,3.37-.27,.09c-.15-.56-.4-1.08-.73-1.55-.18-.27-.36-.46-.64-.46-.41-.06-.82,0-1.19,.18l-3,1,1.09,6.29,2.37-.82c.5-.09,.93-.39,1.19-.82,.23-.68,.26-1.41,.09-2.1l.36-.09,.91,5.56-.27,.09c-.11-.5-.27-.99-.46-1.46-.17-.2-.39-.36-.64-.46-.34-.06-.68-.02-1,.09l-2.46,.91,.91,5.2c.09,.73,.27,1.09,.27,1.28l.27,.27c.22,0,.43-.02,.64-.09l1.92-.64c.45-.16,.88-.37,1.28-.64,.29-.3,.53-.64,.73-1,.27-.84,.48-1.69,.64-2.55v.04Zm-38,18.06v-.91c.33,.2,.72,.26,1.09,.18l.09,.46-1.19,.27h.01Zm0-15.6v-1.55l7.93-2.28,.64,3.65-.27,.09c-.08-.45-.23-.88-.46-1.28-.17-.36-.46-.65-.82-.82-.37-.19-.82-.19-1.19,0l-1.55,.46,1.82,12.22c.05,.6,.21,1.18,.46,1.73,.29,.28,.7,.38,1.09,.27l.36-.18v.46l-4.65,1.37v-.46l.36-.09c.44-.12,.79-.47,.91-.91,.05-.58,.02-1.16-.09-1.73l-1.82-12.22-1.28,.36c-.39,.08-.76,.24-1.09,.46-.09,.18-.27,.27-.36,.46h.01Zm11.76,5.37l4.1-1.46,.36,1.73-4.2,1.46-.27-1.73h0Zm11.95-15.41l.91,5.47-.27,.09c-.19-.82-.53-1.59-1-2.28-.28-.53-.73-.95-1.28-1.19-.5-.18-1.05-.18-1.55,0-.59,.18-1.06,.62-1.28,1.19-.28,.6-.35,1.28-.18,1.92,.03,.45,.22,.88,.55,1.19,.81,.68,1.74,1.21,2.74,1.55,.88,.22,1.71,.59,2.46,1.09,.47,.28,.85,.69,1.09,1.19,.31,.54,.52,1.12,.64,1.73,.17,1.14,0,2.31-.46,3.37-.41,1.02-1.24,1.82-2.28,2.19l-.91,.27c-.18,0-.55-.09-1.09-.09s-.91-.09-1,0-.27,.09-.36,.27v.73l-.27,.09-1-5.38,.36-.09c.17,.82,.51,1.6,1,2.28,.26,.52,.72,.91,1.28,1.09,.56,.18,1.17,.18,1.73,0,.63-.28,1.14-.76,1.46-1.37,.27-.63,.37-1.32,.27-2-.11-.38-.27-.74-.46-1.09-.23-.37-.54-.68-.91-.91-.62-.31-1.26-.58-1.91-.82-.83-.32-1.62-.72-2.37-1.19-.45-.3-.83-.71-1.09-1.19-.32-.5-.54-1.06-.64-1.64-.21-1.1-.08-2.25,.36-3.28,.38-.94,1.14-1.67,2.1-2,.64-.26,1.34-.29,2-.09,.27,.09,.55,.18,.64,.09s.27-.18,.37-.27,.09-.46,.09-.82l.26-.1Zm-23.71,8.48v1.55c-.11,.21-.2,.42-.27,.64-.08,.6-.11,1.21-.09,1.82l-.27,.09-.46-3.74,1.09-.36h0Zm0,16.23h-.09c-.45-.53-.83-1.12-1.14-1.75l-4.92-10.4v3.92l1.92,4-1.92,.55v.91l2.28-.64,1,2.1c.22,.5,.41,1.02,.55,1.55,.03,.26-.04,.52-.18,.73-.21,.27-.49,.46-.82,.55l.09,.46,3.19-1,.04-.98Zm-6.11-12.22v3.92l-.91-1.92-1,7,1.92-.55v.91l-2,.64-.37,2.74c-.07,.48-.1,.97-.09,1.46,0,.24,.14,.45,.36,.55,.18,.18,.55,.18,1.09,.09v.46l-3.47,1v-.46c.29-.22,.57-.47,.82-.73,.27-.83,.46-1.68,.55-2.55l1.91-14.32,.27-.09,.91,1.82v.03Zm-78.95,17.76v-.91l1.92,.36-1.37-6.93-.55,1.46v-2.1l1.19-3,.27,.09,2.74,14.23c.13,.76,.37,1.5,.73,2.19,.22,.39,.58,.68,1,.82l-.09,.36-4.38-.82v-.46c.33,.08,.68,.04,1-.09,.14-.19,.24-.41,.27-.64,0-.36-.09-.91-.18-1.73l-.54-2.42-2-.36v-.05Zm17.14,2.74l.27,.09-1,4.38-8.76-.55v-.46h.46c.42,.07,.83-.16,1-.55,.19-.59,.28-1.2,.27-1.82l.18-10.49c.12-.64,.06-1.3-.18-1.91-.15-.38-.51-.63-.91-.64h-.46v-.46l5.11,.36v.36c-.44-.05-.88,0-1.28,.18-.2,.17-.36,.39-.46,.64-.15,.59-.21,1.21-.18,1.82l-.27,10.21c-.04,.46,0,.92,.09,1.37,.07,.16,.16,.32,.27,.46,.45,.1,.91,.16,1.37,.18h.82c.61,.08,1.22,.05,1.82-.09,.37-.23,.68-.54,.91-.91,.44-.67,.75-1.41,.91-2.19l.02,.02Zm12.22-12.22l.18,5.65h-.37c-.05-.87-.23-1.73-.55-2.55-.3-.56-.7-1.06-1.19-1.46-.43-.36-.99-.52-1.55-.46-.57,.01-1.09,.32-1.37,.82-.37,.5-.54,1.12-.46,1.73-.03,.48,.1,.97,.37,1.37,.71,.91,1.57,1.68,2.55,2.28,.8,.48,1.54,1.06,2.19,1.73,.43,.41,.78,.91,1,1.46,.17,.63,.29,1.27,.36,1.92,.03,1.13-.28,2.25-.91,3.19-.51,.89-1.43,1.48-2.46,1.55-.31,.02-.61-.01-.91-.09-.37-.09-.74-.21-1.09-.36-.35-.14-.72-.23-1.09-.27-.09,0-.18,0-.27,.18-.14,.22-.2,.47-.18,.73h-.27l-.18-5.53h.27c.09,.88,.31,1.73,.64,2.55,.27,.56,.68,1.03,1.19,1.37,.48,.34,1.05,.54,1.64,.55,.66-.04,1.26-.37,1.64-.91,.37-.57,.56-1.23,.55-1.91,0-.41-.08-.82-.27-1.19-.17-.41-.42-.78-.73-1.09-.57-.53-1.18-1.02-1.82-1.46-.77-.53-1.5-1.1-2.19-1.73-.39-.43-.7-.92-.91-1.46-.26-.61-.42-1.26-.46-1.92-.02-1.06,.26-2.1,.82-3,.51-.84,1.39-1.38,2.37-1.46,.67,.03,1.33,.22,1.92,.55,.19,.14,.41,.23,.64,.27,.18,0,.27-.09,.36-.27,.14-.22,.2-.47,.18-.73l.36-.05Zm10.85-.18v-.46l3.92-.46v.46h-.36c-.48,.09-.87,.44-1,.91-.1,.57-.13,1.15-.09,1.73l.46,6.66c.07,1.28,.04,2.56-.09,3.83-.21,.9-.61,1.74-1.19,2.46-.7,.72-1.64,1.18-2.64,1.28-.99,.16-2.01-.07-2.83-.64-.71-.59-1.22-1.39-1.46-2.28-.36-1.3-.54-2.65-.55-4l-.37-6.42c.03-.67-.13-1.34-.46-1.92-.19-.31-.56-.46-.91-.36h-.46v-.37l4.83-.55v.36l-.36,.09c-.44,.04-.83,.32-1,.73-.09,.6-.12,1.21-.09,1.82l.46,7.11c.01,.74,.1,1.47,.27,2.19,.05,.66,.23,1.31,.54,1.9,.2,.41,.52,.76,.91,1,.47,.28,1.02,.38,1.55,.27,.73-.07,1.4-.39,1.92-.91,.54-.51,.89-1.19,1-1.92,.22-1.2,.29-2.43,.18-3.65l-.46-6.66c.01-.63-.11-1.25-.37-1.82-.18-.36-.55-.46-1-.46l-.37,.09h.02Zm4.47-1.38l3-.55,8,10.85-.91-9.3c-.03-.62-.15-1.23-.36-1.82-.25-.34-.68-.49-1.09-.37l-.36,.09v-.46l3.83-.73,.09,.46-.46,.09c-.43,.08-.78,.4-.91,.82-.1,.57-.1,1.16,0,1.73l1.32,13.69h-.27l-8.57-11.58,.91,9.94c0,.64,.16,1.26,.46,1.82,.25,.29,.64,.39,1,.27h.36l.09,.46-3.92,.73v-.46l.36-.09c.45-.06,.81-.38,.91-.82,.1-.57,.1-1.16,0-1.73l-1.09-11.31c-.23-.34-.51-.65-.82-.91-.21-.17-.46-.3-.73-.36h-.73l-.09-.46h-.02Zm24.08-5.38l3.83-1.09,.09,.46-.18,.09c-.18,0-.36,.18-.64,.46-.26,.27-.47,.58-.64,.91-.23,.62-.42,1.26-.55,1.91l-1.84,6.83,.46,4c.05,.61,.24,1.2,.55,1.73,.25,.29,.64,.39,1,.27l.37-.09,.09,.46-4.74,1.19v-.31l.37-.09c.42-.15,.75-.49,.9-.91,.1-.61,.07-1.23-.09-1.82l-.46-3.74-3.92-5.93c-.28-.47-.62-.9-1-1.28-.21-.27-.49-.46-.82-.55h-.55v-.36l4.65-1.28,.09,.46h-.27c-.23,.12-.45,.28-.64,.46-.2,.26-.26,.6-.18,.91,.13,.49,.34,.96,.64,1.37l3,4.56,1.55-5.56c.15-.57,.24-1.15,.27-1.73-.09-.27-.09-.46-.18-.55-.13-.15-.29-.27-.46-.36-.22,0-.43,.03-.64,.09l-.06-.51Zm-68.77,8.3v2.1l-1.92,4.74,1.92,.37v.91l-2.28-.46-1,2.37c-.16,.44-.28,.9-.36,1.37-.03,.26,.04,.52,.18,.73,.28,.26,.63,.45,1,.55v.46l-3.1-.62v-.55c.2,.01,.4-.05,.55-.18,.48-.67,.84-1.41,1.09-2.19l3.92-9.58v-.02Zm-5.56-3.56v-.46l.36,.09-.09,.46-.27-.09Zm0-.46v.46h-.09c-.38-.2-.85-.08-1.09,.27-.26,.51-.41,1.07-.46,1.64l-2.1,13.32-.27-.09-5.2-15.32-1.55,9.85c-.16,.63-.19,1.28-.09,1.92,.17,.36,.46,.65,.82,.82l.46,.09-.09,.46-3.84-1.38v-.09l.09-.36,.36,.18c.38,.2,.85,.08,1.09-.27,.26-.51,.41-1.07,.46-1.64l1.73-11c-.09-.46-.28-.9-.55-1.28-.15-.32-.37-.59-.64-.82-.23-.12-.48-.21-.73-.27l.09-.46,3,1,4.74,14.23,1.46-9.12c.16-.62,.19-1.27,.09-1.91-.15-.38-.44-.67-.82-.82l-.37-.09v-.46l3.47,1.19,.03-.05Zm0,16v.54h-.46l.09-.46c.09,0,.18-.09,.36-.09h0Zm-13.5-15.99c.09-.51,.09-1.04,0-1.55v1.55Zm0-1.55v1.55c-.04,.8-.16,1.6-.37,2.37-.32,1.97-1.4,3.73-3,4.92-.62,.51-1.39,.79-2.19,.82v-1.09c.38-.09,.72-.28,1-.55,1-.73,1.73-2.37,2.37-4.74,.6-2.11,.72-4.32,.36-6.48-.22-1.19-.95-2.23-2-2.83-.53-.28-1.15-.35-1.73-.18v-1.09c.73,0,1.46,.2,2.1,.55,1.51,.96,2.59,2.46,3,4.2,.28,.82,.44,1.68,.46,2.55h0Zm0,13.5v.09h0v-.09Zm-5.56-20.79v1.09c-.32,.12-.63,.27-.91,.46-1,.91-1.82,2.55-2.46,5-.6,2.07-.72,4.25-.36,6.38,.26,1.13,.95,2.11,1.92,2.74,.55,.33,1.22,.39,1.82,.18v1.09c-.7,.07-1.4-.09-2-.46-1.36-.81-2.39-2.07-2.92-3.56v-8.3c.47-1.66,1.54-3.08,3-4,.57-.37,1.24-.59,1.92-.64v.02Zm-4.94-3.28v-.46l.73,.46-.09,.46-.37-.27c-.09-.11-.18-.11-.27-.2h0Zm0-.45v.46c-.27-.11-.58-.07-.82,.09-.38,.44-.63,.98-.73,1.55l-3.06,9.48c-.17,.5-.3,1.02-.4,1.54,.02,.22,.08,.44,.18,.64,.11,.29,.3,.54,.55,.73l.46,.27-.18,.46-2.19-1.55v-2.83c.07-.07,.1-.17,.09-.27l3.09-9.45c.2-.5,.32-1.02,.37-1.55,.03-.26-.04-.52-.18-.73-.13-.28-.32-.53-.55-.73l-.36-.27,.09-.36,3.65,2.55v-.03Zm0,8.39c-.09,.36-.18,.64-.27,1-.57,2.16-.54,4.43,.09,6.57,0,.25,.07,.5,.18,.73v-8.3Zm-6.2-14c.35,.33,.63,.74,.82,1.19,.11,.45,.17,.91,.18,1.37-.09,.36-.18,.82-.36,1.46l.27,.18,1.37-3.19-2.28-2.28v1.27Zm0-1.19v1.19h0l-1.28-1.37-4.83,10.26c-.28,.54-.46,1.13-.55,1.73,.04,.47,.27,.9,.64,1.19l.27,.37-.18,.36-3.19-3.19v-.55c.24,.16,.55,.19,.82,.09,.39-.34,.68-.78,.82-1.28l4.83-10.31-1.09-1.09c-.29-.32-.63-.59-1-.82-.34-.07-.7,0-1,.18-.39,.28-.7,.66-.91,1.09l-.27-.27,1.55-3,5.37,5.34v.08Zm0,17.69v2.83l-2.19-1.46,.18-.46,.36,.27c.28,.25,.68,.28,1,.09,.35-.34,.57-.79,.64-1.28h.01Zm-9.12-26.16v-3.1l.55-.37,.27,.27-.82,3.2Zm0-3.1v3.1l-2.55,10.67c-.21,.8-.33,1.63-.36,2.46,.12,.51,.3,1,.55,1.46l-.18,.27-1.09-1.37v-5.29l.37-1.55-.37-.55v-1.19l.64,.82,1.64-6.75-2.3,1.42v-1.1l3.65-2.46v.06Zm0,21.61v.55l-.73-.73,.18-.36,.27,.36c.1-.04,.19,.07,.28,.14v.04Zm-7.57-28l.91-1.09c.46-.64,.82-1.09,.82-1.46,0-.48-.12-.96-.37-1.37l-.27-.46,.27-.27,2.46,4.38-.18,.27-.27-.46c-.27-.55-.64-.82-1-.73-.18,0-.55,.36-1,.91l-1.37,1.64v-1.37h0Zm3.92,8.86v1.04l-2.19,1.55,2.19,2.92v1.19l-2.83-3.74-1.09,.73v-1.19l3.92-2.55v.05Zm0,8.85v5.29l-2.19-2.92,.18-.36c.37,.46,.64,.64,.82,.64,.19,0,.37-.1,.46-.27,.27-.48,.46-1.01,.55-1.55l.18-.83Zm-7.93-31.81l1.92,3.47-2,15.5,4.1-4.92v1.37l-5.93,7.11-.18-.36,2.18-16.67-5.29,6.5c-.38,.4-.69,.86-.91,1.37,.02,.5,.15,.99,.4,1.43l.27,.46-.27,.27-2.5-4.38,.18-.27,.27,.36c.27,.55,.64,.82,1,.82,.39-.24,.73-.55,1-.91l6-7.3c.07-.48,.1-.97,.09-1.46-.02-.4-.08-.8-.18-1.19-.12-.32-.27-.63-.46-.91l.27-.27,.04-.02Zm4,25.45v1.19l-.64,.46c-.33,.2-.64,.45-.91,.73-.08,.23-.11,.48-.09,.73,.07,.48,.3,.93,.64,1.28l-.27,.36-2.55-3.47,.18-.36c.36,.36,.64,.55,.91,.55,.64-.12,1.23-.41,1.73-.82l1-.65Z"/></g></g></svg>